<svg xmlns="http://www.w3.org/2000/svg" width="800" height="800" overflow="hidden"><path d="M597.325 426.653c-2.696 109.22-17.208 349.97-190.842 348.733-262.364-1.874-199.003-236.253-201.608-348.733-3.753-162.045 87.857-293.494 196.225-293.494 108.371.004 200.227 131.459 196.225 293.494z" fill="#4c2d1e"/><path d="M708.727 735.945c-20.427-34.537-45.812-40.708-66.735-47.382-21.499-6.854-65.777-10.805-89.927-15.64-23.324-4.668-78.72-19.683-79.352-45.86-.653-27.424 14.589-136.305 14.589-136.305H311.427s15.256 108.878 14.6 136.306c-.626 26.176-56.033 41.19-79.36 45.859-24.154 4.835-68.425 8.786-89.923 15.64-20.93 6.674-46.322 12.842-66.749 47.382-12.39 20.944-20.427 54.852-20.427 92.252h659.6c-.004-37.4-8.028-71.308-20.441-92.252z" fill="#f0c7b1"/><path d="M472.713 627.067c8.483 37.159 61.76 46.573 89.396 52.105 74.49 14.889 114.824 17.456 143.81 66.433 9.87 16.714 18.56 53.937 20.27 82.12 6.24.99 1.806-59.269-17.462-91.78-33.123-56.004-98.903-51.459-156.662-63.019-23.324-4.668-78.72-19.682-79.352-45.859zm-145.806 0c-.632 26.177-56.029 41.191-79.353 45.86-57.759 11.56-123.538 7.014-156.661 63.018-19.268 32.514-23.702 92.77-17.463 91.78 1.71-28.183 10.401-65.406 20.271-82.12 28.982-48.977 69.32-51.544 143.81-66.433 27.635-5.532 80.913-14.95 89.396-52.105z" fill="#ffe4d6"/><path d="M233.91 700.745s97.38 1.017 113.808 6.41c7.868 2.576 28.465 19.151 28.465 19.151s-22.29-10.778-29.437-12.777c-16.602-4.638-112.836-12.784-112.836-12.784zm165.203 35.652c6.98-.139 26.816-12.916 26.816-12.916s-18.952 7-24.963 7.344c-5.07.292-21.645-4.21-21.645-4.21s14.07 9.895 19.792 9.782zm58.524-24.622c22.95-6.182 101.272-10.982 101.272-10.982s-80.89-1.755-103.734 5.865c-7.656 2.556-25.71 17.544-25.71 17.544s20.617-10.398 28.172-12.427z" fill="#e1ac8f"/><path d="M708.727 735.945c-33.12-56.001-99.015-51.482-156.662-63.019-23.324-4.668-78.72-19.682-79.352-45.859-.653-27.424 14.589-136.306 14.589-136.306H311.427s15.256 108.878 14.6 136.306c-.626 26.177-56.033 41.191-79.36 45.86-24.154 4.834-68.425 8.785-89.923 15.64-20.93 6.673-46.322 12.841-66.749 47.382-12.39 20.944-20.427 54.852-20.427 92.252h659.6c-.004-37.404-8.028-71.312-20.441-92.256z" fill="none" stroke="#c27b55" stroke-width="5.1"/><path d="M90.469 169.769c4.474 1.646 14.594 1.646 19.067 0 3.511-1.291 7.479-4.019 11.489-7.484.785-10.522 3.279-28.936 3.919-33.578a186.78 186.78 0 00-3.428-.303H78.609c-1.305.103-2.578.216-3.811.339.643 4.663 3.096 22.765 3.899 33.297 4.107 3.582 8.178 6.407 11.772 7.729z" fill="url(#SvgjsLinearGradient7402)" transform="matrix(3.4 0 0 3.4 59.81 56.401)"/><path d="M378.012 832.594c-29.348 0-62.954-.487-102.737-1.486-17.816-.452-35.292-.67-53.425-.67-27.478 0-51.139.496-74.02.98-19.109.4-37.16.778-54.676.778-14.284 0-27.112-.255-39.212-.782l-2.081-.089-.078-.955c-1.87-21.342-1.119-38.083 2.233-49.759 9.313-32.538 40.049-75.551 45.387-77.534 58.36-18.982 75.143-19.896 90.681-23.153 6.08-.293 12.366-.599 20.676-1.993 5.96-1.037 11.872-3.458 17.591-5.797 7.028-2.876 13.665-5.593 19.84-5.593 2.012 0 3.838.286 5.585.87.721.262 1.452.562 2.15.96l-.082.407.088.674c1.629 14.29 3.308 26.424 4.787 37.13l.038.27.275.05c40.066 3.424 89.437 7.681 139.026 7.681 50.905 0 98.82-4.267 138.577-7.85l.269-.024.037-.269c1.435-10.217 3.104-22.324 4.76-36.764l.207-1.768c.497-.126 1.187-.428 1.938-.666 1.66-.555 3.39-.823 5.294-.823 5.787 0 12.159 2.557 18.908 5.26 5.565 2.23 11.322 4.542 17.452 5.77 4.151.84 8.452 1.016 12.614 1.186 1.095.048 2.193.088 3.28.146 37.57 5.508 42.42 6.158 93.93 23.164.312.13.696.262 1.114.405 1.292.442 3.06 1.047 3.547 1.928 5.497 9.737 11.009 18.42 16.34 26.822 17.442 27.476 32.504 51.211 34.486 93.595.027.374.051.69.065 1.003h-2.645c-136.082.048-202.997 2.452-256.768 4.383-37.482 1.35-69.836 2.513-115.45 2.513z" fill="#1d282e"/><path d="M752.859 825.705c-1.007 0-2.074 0-3.08.004-11.455-51.198-52.347-105.632-61.98-110.429-33.85-16.85-103.196-25.157-137.675-38.746-2.523 43.57-10.557 67.078-15.882 117.888-4.614-26.197 7.195-105.454 9.17-122.366l.486-4.141c5.74-1.466 7.17-3.832 26.14 3.767 15.259 6.12 19.114 6.545 30.066 6.956 46.634 1.748 54.172 11.587 97.209 23.307 6.875 1.874.279-3.509 21.002 29.155 17.697 27.887 32.718 51.663 34.544 94.605zm-706.098 0c1.006 0 2.074 0 3.08.004 11.455-51.198 52.347-105.632 61.979-110.429 33.85-16.85 102.87-25.157 137.35-38.746 2.522 43.57 10.883 67.078 16.207 117.888 4.614-26.197-7.194-105.454-9.17-122.366-.091-.792-.486-4.141-.486-4.141-5.739-1.466-7.17-3.832-26.139 3.767-15.26 6.12-19.115 6.51-30.066 6.956-40.032 6.375-46.366 7.399-97.21 23.307-6.582 2.734-.278-3.509-21.001 29.155-17.697 27.887-32.718 51.663-34.544 94.605z" fill="#2d373d"/><path d="M400.051 720.39c-48.95 0-97.818-3.206-137.598-6.548-.35-4.413.007 1.207-1.53-5.6l.446.065c42.316 5.681 90.378 8.687 138.985 8.687h.013c49.542 0 97.223-3.04 137.908-8.786l.448-.068-.068.452c-.414 2.819-.778 3.846-1.118 6.494-41.613 3.424-134.086 5.304-137.486 5.304zm136.116 6.851a580.1 580.1 0 011.064-8.286l.064-.445-.445.065c-40.405 5.64-87.625 8.622-136.564 8.622-48.008 0-95.554-2.944-137.49-8.524l-.441-.058.06.442c.354 2.584.677 5.11.983 7.61 90.923 6.626 164.183 10.278 272.769.574z" fill="#101a1f"/><path d="M753.134 824.685c-2.584-55.287-27.166-78.574-50.864-120.567-.714-1.292-3.464-2.05-4.828-2.479-42.126-13.29-54.094-21.114-94.044-23.188-5.27-.272-10.642-.272-15.844-1.326-16.078-3.23-30.09-14.11-41.82-10.2-.748.238-1.462.544-2.176.952-.071.612-.136 1.19-.207 1.768-1.629 14.212-3.264 26.112-4.757 36.758-83.16 10.026-196.897 8.969-277.542.17-1.496-10.816-3.162-22.852-4.794-37.166-.068-.442-.102-.884-.17-1.326-.714-.408-1.462-.714-2.21-.986-12.58-4.216-27.744 6.464-43.18 9.15-28.648 4.984-29.954-.293-111.417 26.516-5.678 2.108-36.516 46.036-45.594 77.758-3.944 13.736-3.774 32.436-2.244 49.878.034.442.068.85.102 1.258.816.034 1.598.068 2.38.099 63.07 2.757 121.957-2.819 221.34-.306 211.241 5.307 186.353-5.304 474.945-5.406h2.992c0-.473-.034-.915-.068-1.357zM538.322 708.541a514.452 514.452 0 00-1.122 8.194c-89.746 9.34-188.856 9.34-274.72.17-.374-2.686-.748-5.443-1.156-8.265 91.392 12.274 199.07 10.914 276.998-.099zm-3.06 23.423c-80.444 6.97-190.328 6.766-270.878.136a549.65 549.65 0 00-1.632-13.09c90.542 12.036 196.724 10.706 274.142-.102a572.41 572.41 0 00-1.632 13.056zm111.966 90.576c-22.236.238-44.51.445-66.746.714-49.092.581-137.118 5.137-169.354 5.171-146.71.306-114.036-1.394-179.588-1.666-65.347-.136-118.693 5.202-177.65 3.706-.34-25.058 1.7-42.058 10.03-59.428 11.357-23.494 21.149-41.994 37.775-61.948.476-.544 1.36-.68 2.006-.922 17.476-6.46 38.114-14.348 60.69-19.346 27.743-6.154 43.01-3.77 60.757-11.764 11.73-5.27 20.672-10.842 28.73-8.534.204 14.382 1.088 26.146 2.312 37.638.068.612.136 1.19.204 1.802.306 2.822.646 5.64 1.02 8.5.068.643.136 1.255.204 1.87.544 4.352 1.122 8.735 1.7 13.362.102.646.204 1.292.272 1.972 2.04 16.048 4.216 34.646 5.78 60.758 1.938-24.378 1.224-41.82-.714-60.078 89.386 11.628 193.664 10.37 270.372-.102-2.044 18.36-2.724 35.666-.782 60.18 1.564-25.67 3.808-44.407 5.882-60.894.068-.68.17-1.36.234-2.006.578-4.59 1.156-8.976 1.7-13.328.072-.646.136-1.292.208-1.938.34-2.822.68-5.644.948-8.466.102-.612.174-1.22.208-1.836 1.224-11.454 2.108-23.256 2.278-37.264 13.158-3.978 28.288 11.53 48.45 13.672 19.89 2.142 40.256 4.954 59.398 11.247 14.11 4.62 38.114 11.43 43.829 14.865 1.156.714 2.618 5.066 3.264 6.43 16.558 33.013 42.293 51.506 49.368 109.683-84.8-2.118-86.605-2.22-102.785-2.05z"/><path d="M543.439 481.548c-22.424 36.498-75.307 102.068-112.503 116.318-14.604 5.595-47.635 5.595-62.235 0-37.197-14.25-90.073-79.82-112.5-116.318-22.042-35.866-48.477-162.498-48.513-162.678-4.243-16.697-6.515-34.218-6.541-52.288-.173-113.792 88.63-206.155 198.36-206.332 109.738-.177 198.82 91.89 198.983 205.679.029 18.07-2.184 35.601-6.372 52.312-.055.177-26.562 127.301-48.679 163.307z" fill="#f0c7b1"/><path d="M432.946 63.15c88.108 21.211 153.725 103.125 153.578 200.937-.03 18.067-2.298 35.594-6.541 52.288-.04.18-24.079 126.818-46.12 162.678-22.43 36.491-72.915 99.572-110.108 113.822-4.818 1.85-16.408 3.712-23.938 3.712-7.53 0-19.118-1.862-23.935-3.712-37.197-14.25-87.681-77.33-110.108-113.822-22.042-35.863-46.084-162.498-46.12-162.678-4.243-16.694-6.515-34.218-6.541-52.288-.147-97.809 65.462-179.726 153.577-200.937-94.078 16.38-165.7 101.238-165.546 203.428.026 18.068 2.297 35.591 6.54 52.289.04.18 26.472 126.815 48.513 162.677 22.427 36.495 75.307 102.065 112.5 116.318 7.309 2.801 19.222 4.198 31.13 4.188 11.9.003 23.8-1.387 31.105-4.188 37.197-14.25 90.074-79.82 112.504-116.318 22.041-35.866 48.477-162.497 48.51-162.677 4.242-16.698 6.514-34.218 6.54-52.289.16-102.19-71.462-187.047-165.54-203.428z" fill="#e8b9a0"/><path d="M144.004 125.052c-6.87 10.737-23.072 30.026-34.468 34.218-4.474 1.646-14.594 1.646-19.067 0-11.396-4.192-27.596-23.481-34.467-34.218-6.753-10.551-14.852-47.803-14.863-47.856a60.396 60.396 0 01-2.004-15.382C39.082 28.339 66.289 1.168 99.907 1.116c33.621-.052 60.913 27.032 60.963 60.506a60.457 60.457 0 01-1.952 15.389c-.017.052-8.138 37.449-14.914 48.041z" fill="none" stroke="#c27b55" stroke-width="1.5" transform="matrix(3.264 0 0 3.39932 73.41 56.456)"/><path d="M100.002 141.248c-4.158 0-5.133-3.404-5.133-3.404 5.5 2.12 10.267-.146 10.267-.146s-1.477 3.55-5.134 3.55z" fill="url(#SvgjsLinearGradient6987)" transform="matrix(4.08 0 0 4.08 -8.193 -31.454)"/><path d="M345.963 506.861c11.245-3.88 28.45-10.983 37.398-11.379 4.622-.212 9.592 3.55 14.582 4.753 3.472.84 13.317-4.716 16.85-4.753 9.27-.098 28.805 7.5 38.768 11.38.551.22 0 0 0 0s-23.619 28.368-53.795 28.368c-34.157.004-53.803-28.369-53.803-28.369s-.559.2 0 0z" fill="#f771a9" stroke="#e85391" stroke-width="3.06"/><path d="M455.054 506.029c-.195-.67-1.966-1.497-2.664-1.465-1.269.07-2.742 1.616-5.357 1.673-3.027.073-19.09 2.489-23.403 2.203-8.686-.58-15.602 2.718-23.86 2.718-8.262 0-15.781-3.6-24.463-3.016-4.313.294-19.776-1.827-22.812-1.905-2.623-.061-3.639-1.677-4.757-1.893-.783-.147-2.705.677-3.088 1.379-.339.608.375 2.734.852 3.24 1.163 1.211 4.635.987 6.928 1.044 3.17.07 18.674 2.195 23.052 1.901 8.49-.575 16.06 3.354 24.284 3.354s15.198-3.627 23.689-3.052c4.37.29 20.461-2.138 23.635-2.203 2.297-.057 5.574-.249 6.749-1.191.554-.441 1.415-2.102 1.215-2.787z" fill="#c92066"/><path d="M399.762 528.942c-13.75 0-27.111-4.704-37.703-13.484 5.333-.294 10.82-1.13 16.16-.898 6.582.286 12.828 2.885 19.405 3.317 7.108.474 13.701-1.987 20.661-2.831 5.802-.694 14.95-2.75 20.772-2.538-10.412 7.98-26.014 16.434-39.295 16.434zm18.658-22.9c5.361-.152 13.93-2.171 19.274-1.784-5.732-3.096-14.92-3.84-21.391-5.088-5.574-1.085-11.171 3.228-16.65 3.95-6.178.812-10.813-5.055-16.806-5.255-6.5.07-13.191 4.043-18.907 6.732 5.239-.139 10.636-.718 15.855-.05 6.389.813 12.521 3.334 18.992 3.55 6.622.229 13.011-1.88 19.633-2.056z" fill="#ff8ebd"/><path d="M399.566 525.058c-8.278 0-16.348-2.864-23.284-8.168 1.55-.155 3.117-.273 4.623-.273.477 0 .954.016 1.432.044 2.484.131 4.932.845 7.531 1.604 2.522.726 5.125 1.48 7.846 1.713a21.26 21.26 0 001.612.062c3.341 0 6.511-.833 9.58-1.632 1.946-.51 3.786-.992 5.679-1.277 1.032-.164 2.15-.241 3.415-.241 1.093 0 2.22.061 3.337.147-5.773 4.288-13.247 8.021-21.77 8.021z" fill="#ffa8cc"/><path d="M61.952 84.523c-.506-2.285 5.191-3.973 12.711-3.051 7.518.923 12.738 5.524 12.052 7.844-.38 1.286-10.639 3.245-14.253 2.847-3.664-.405-9.288-2.123-10.51-7.64z" fill="url(#SvgjsRadialGradient7345)" transform="matrix(3.4 0 0 3.4 59.81 56.401)"/><path d="M341.16 350.505c0 15.956-12.94 28.893-28.9 28.893s-28.9-12.937-28.9-28.893c0-15.97 12.94-28.907 28.9-28.907s28.9 12.937 28.9 28.907z" fill="#4d3623" stroke="#1f1105" stroke-width="1.7"/><path d="M295.457 364.013c4.22-.35.483-1.476.483-1.476-2.084-1.125-6.011-2.852-6.011-4.44 0-4.968 6.806-6.253-.164-8.215-7.242-6.647 5.62-6.507 5.525-6.732-4.695-11.444 1.439-5.16 4.023-8.54 9.574-12.52 2.669 1.285 7.867 0 1.884-.463-3.757-7.375.163-6.406 2.595.636 3.186 2.791 3.186 2.791 1.894-.37 4.855-3.284 4.855-3.284 3.608 1.088 6.14 6.212 5.026 5.253 1.774-.214 4.256-1.064 6.194-1.642 0 0 .34-1.15.667-.16 4.42 12.818 15.817 11.9 2.693 15.603 0 0-.847 0 1.842 2.131 13.053 10.425-10.125 7.198 2.17 11.992.5-.496-7.368 4.651-7.368 6.076 0 2.414-5.022 8.758-9.374 6.26-2.428-1.388-2.798 2.89-4.226.914-2.798-3.87-8.388-.167-6.32-3.723 3.052-2.506-3.15.982-4.353.982-3.985 0 5.216-13.402 18.755-3.444 3.96 2.9-4.162-6.902 3.012-6.902.717.235.503-2.512.503-3.284-3.733-.731 6.695-.017 6.695-6.08.656.133 2.451-1.682-7.875 0 0 0-.33-3.613-.163-4.27.53-2.108 5.848-1.434 4.352-3.614-.003-.003-3.849-7.725-3.849-7.725-12.393-1.992-5.31-3.236-13.059-1.642-.367 1.82-16.595 9.558-16.079 13.145.483 3.383 10.19 4.515 1.003 10.509 13.764 26.374-10.169-.585-.173 5.923z" fill="#5c4633"/><path d="M312.26 325.212l.826 21.158 8.85-19.23-7.337 19.856 15.545-14.379-14.379 15.538 19.863-7.334-19.227 8.854 21.155.823-21.155.823 19.227 8.853-19.863-7.334 14.379 15.538L314.599 354l7.337 19.856-8.85-19.23-.826 21.16-.826-21.157-8.854 19.23 7.33-19.856-15.538 14.379 14.379-15.538-19.863 7.334 19.227-8.854-21.144-.823 21.144-.823-19.227-8.853 19.863 7.334-14.379-15.538 15.538 14.378-7.33-19.856 8.854 19.23.826-21.161z" fill="#4d3623" stroke="#3e2816" stroke-width="1.7"/><path d="M316.095 331.556l-2.598 15.97 9.548-13.06-8.504 13.76 13.821-8.418-13.12 9.462 15.986-2.482-15.748 3.713 15.728 3.825-15.977-2.59 13.063 9.547-13.77-8.5 8.419 13.817-9.463-13.124 2.482 15.987-3.712-15.749-3.829 15.725 2.598-15.97-9.558 13.06 8.514-13.763-13.818 8.418 13.124-9.462-15.986 2.482 15.745-3.716-15.725-3.825 15.97 2.587-13.063-9.547 13.77 8.5-8.415-13.818 9.459 13.124-2.482-15.983 3.723 15.749 3.818-15.719z" fill="#4d3623" stroke="#2e1b0c" stroke-width="1.7"/><path d="M323.099 350.501c0 5.988-4.855 10.836-10.84 10.836s-10.835-4.852-10.835-10.836 4.855-10.84 10.84-10.84 10.835 4.853 10.835 10.84z" opacity=".9"/><path d="M300.88 371.268c-1.595 1.595-4.746 1.034-7.035-1.258-2.291-2.288-2.856-5.44-1.258-7.034 1.595-1.595 4.747-1.034 7.035 1.258s2.856 5.436 1.258 7.034z" fill="#fff" opacity=".7"/><path d="M335.41 344.81c-2.386 2.39-8.173.482-12.92-4.267-4.746-4.747-6.657-10.53-4.267-12.92 2.39-2.39 8.174-.483 12.92 4.267 4.747 4.746 6.654 10.533 4.267 12.92z" fill="#fff" opacity=".9"/><path d="M248.51 355.601c0 46.944 27.404 84.997 61.2 84.997s61.2-38.053 61.2-84.997c0-46.947-27.404-85-61.2-85s-61.2 38.053-61.2 85zm21.937-11.822c-1.72-7.769 17.649-13.508 43.217-10.373 25.561 3.138 43.31 18.782 40.977 26.67-1.292 4.372-36.173 11.032-48.46 9.68-12.458-1.378-31.58-7.219-35.734-25.977z" fill="#f0c7b1"/><path d="M72.462 92.163c3.614.398 13.873-1.561 14.253-2.847.687-2.32-4.534-6.921-12.052-7.844-6.46-.792-11.563.345-12.556 2.128.898-6.4 7.7-11.397 15.987-11.434 8.911-.037 16.148 5.676 16.172 12.765.021 7.088-7.185 12.862-16.095 12.902-8.913.037-16.149-5.676-16.173-12.764 0-.105.016-.208.019-.313 1.331 5.327 6.835 7.008 10.445 7.407z" fill="url(#SvgjsRadialGradient7368)" transform="matrix(3.4 0 0 3.4 59.81 56.401)"/><path d="M61.952 84.523c-.506-2.285 5.191-3.973 12.711-3.051 7.518.923 12.738 5.524 12.052 7.844-.38 1.286-10.639 3.245-14.253 2.847-3.664-.405-9.288-2.123-10.51-7.64z" fill="url(#SvgjsRadialGradient7373)" transform="matrix(3.4 0 0 3.4 59.81 56.401)"/><path d="M271.796 326.419c14.308-6.725 31.79-7.344 47.05-3.417 8.173 1.907 16.88 4.369 24.014 8.97 6.613 3.858 11.985 8.5 17.007 14.245-4.563-5.783-9.429-10.601-15.719-14.518-7.738-4.814-16.214-7.8-25.037-9.914-15.596-3.829-33.058-2.958-47.315 4.634z" fill="#c27b55"/><path d="M254.691 331.706s7.915 2.995 12.223 2.108c-1.326-1.56-3.726-5.454-3.726-5.454s6.3 1.874 10.713.11c2.992-1.198 13.821-3.4 18.55-3.625 5.736-.28 17.249.425 22.9 1.441 11.471 2.068 30.548 8.942 39.705 24.426.867 1.945 4.783 3.131 4.783 3.131s-3.468-.73-3.906.143c-.959 1.908 4.413 6.855 5.086 7.47-.547-.493-4.382-3.86-5.855-3.288-.207.075-.465 1.32-.527 1.639 1.02-8.248-16.449-22.936-40.976-25.854-25.568-3.04-44.938 2.527-43.218 10.058 4.155 18.183 23.277 23.844 35.734 25.176 8.589.922 28.213-1.961 39.695-5.225l3.438-1.078c-6.797 3.43-25.582 7.463-33.208 8.17-2.53.238-7.616.354-10.153.29-20.226-.538-34.544-10.81-39.878-24.685-.425-1.115-1.68-2.104-2.85-2.366-5.453-1.228-17.326-6.158-17.326-6.158 7.888 1.228 11.842 2.292 18.037.2-6.048-2.263-9.241-6.63-9.241-6.63z"/><path d="M138.048 84.523c.506-2.285-5.191-3.973-12.711-3.051-7.518.923-12.738 5.524-12.052 7.844.38 1.286 10.639 3.245 14.253 2.847 3.664-.405 9.288-2.123 10.51-7.64z" fill="url(#SvgjsRadialGradient7352)" transform="matrix(3.4 0 0 3.4 59.81 56.401)"/><path d="M516.26 350.505c0 15.952-12.94 28.893-28.9 28.893s-28.9-12.94-28.9-28.893c0-15.97 12.94-28.907 28.9-28.907s28.9 12.937 28.9 28.907z" fill="#4d3623" stroke="#1f1105" stroke-width="1.7"/><path d="M470.56 364.013c4.216-.35.483-1.476.483-1.476-2.084-1.122-6.011-2.85-6.011-4.437 0-4.967 6.807-6.256-.163-8.214-7.246-6.65 5.617-6.511 5.525-6.736-4.7-11.444 1.438-5.16 4.019-8.54 9.574-12.52 2.669 1.285 7.867 0 1.887-.463-3.753-7.375.163-6.406 2.595.632 3.19 2.791 3.19 2.791 1.893-.37 4.855-3.284 4.855-3.284 3.607 1.088 6.14 6.215 5.025 5.256 1.771-.214 4.257-1.064 6.191-1.642 0 0 .34-1.15.667-.156 4.42 12.818 15.816 11.896 2.69 15.602 0 0-.848 0 1.842 2.132 13.056 10.421-10.125 7.198 2.17 11.992.502-.5-7.369 4.648-7.369 6.072 0 2.418-5.021 8.759-9.373 6.263-2.428-1.39-2.795 2.89-4.227.915-2.798-3.87-8.39-.167-6.32-3.723 3.053-2.506-3.149.979-4.352.979-3.985 0 5.215-13.403 18.754-3.444 3.961 2.903-4.165-6.899 3.012-6.899.721.235.504-2.512.504-3.288-3.73-.727 6.698-.013 6.698-6.075.656.129 2.451-1.687-7.875 0 0 0-.33-3.618-.163-4.27.53-2.105 5.851-1.436 4.352-3.615-.003-.003-3.852-7.721-3.852-7.721-12.393-1.996-5.31-3.24-13.056-1.643-.367 1.82-16.595 9.558-16.079 13.145.483 3.38 10.187 4.515 1.003 10.513 13.764 26.36-10.17-.599-.17 5.909z" fill="#5c4633"/><path d="M487.36 325.212l.823 21.155 8.853-19.23-7.337 19.855 15.541-14.375-14.378 15.538 19.862-7.334-19.226 8.854 21.154.823-21.154.823 19.226 8.853-19.862-7.334 14.378 15.538-15.541-14.375 7.337 19.856-8.853-19.23-.823 21.158-.823-21.155-8.857 19.23 7.334-19.855-15.538 14.375 14.378-15.538-19.862 7.334 19.223-8.854-21.144-.823 21.144-.823-19.223-8.853 19.862 7.334-14.378-15.538 15.538 14.375-7.334-19.856 8.857 19.23.823-21.158z" fill="#4d3623" stroke="#3e2816" stroke-width="1.7"/><path d="M491.195 331.556l-2.598 15.97 9.548-13.06-8.504 13.76 13.818-8.414-13.12 9.458 15.986-2.482-15.749 3.717 15.728 3.825-15.976-2.591 13.066 9.547-13.77-8.5 8.419 13.814-9.463-13.124 2.482 15.987-3.712-15.749-3.829 15.725 2.598-15.97-9.561 13.06 8.517-13.76-13.821 8.415 13.124-9.459-15.987 2.482 15.746-3.72-15.722-3.821 15.966 2.587-13.062-9.547 13.77 8.504-8.419-13.815 9.459 13.124-2.482-15.986 3.723 15.748 3.825-15.725z" fill="#4d3623" stroke="#2e1b0c" stroke-width="1.7"/><path d="M498.199 350.501c0 5.988-4.855 10.836-10.84 10.836s-10.838-4.848-10.838-10.836c0-5.984 4.855-10.84 10.839-10.84s10.839 4.853 10.839 10.84z" opacity=".9"/><path d="M475.98 371.268c-1.598 1.595-4.746 1.034-7.035-1.254-2.291-2.289-2.856-5.444-1.254-7.038 1.594-1.598 4.743-1.034 7.03 1.254 2.29 2.292 2.854 5.444 1.259 7.038z" fill="#fff" opacity=".7"/><path d="M510.51 344.81c-2.387 2.39-8.17.482-12.92-4.264-4.746-4.746-6.653-10.533-4.27-12.92 2.39-2.39 8.177-.483 12.92 4.264 4.746 4.746 6.66 10.533 4.27 12.92z" fill="#fff" opacity=".9"/><path d="M489.91 270.601c-33.796 0-61.2 38.053-61.2 85 0 46.944 27.404 84.997 61.2 84.997s61.2-38.053 61.2-84.997c0-46.947-27.404-85-61.2-85zm3.529 99.154c-12.288 1.353-47.168-5.307-48.46-9.68-2.336-7.887 15.415-23.53 40.977-26.67 25.567-3.134 44.937 2.609 43.217 10.374-4.155 18.758-23.277 24.6-35.734 25.976z" fill="#f0c7b1"/><path d="M127.538 92.163c-3.614.398-13.873-1.561-14.253-2.847-.687-2.32 4.534-6.921 12.052-7.844 6.46-.792 11.563.345 12.556 2.128-.898-6.4-7.7-11.397-15.987-11.434-8.911-.037-16.148 5.676-16.172 12.765-.021 7.088 7.185 12.862 16.095 12.902 8.913.037 16.149-5.676 16.173-12.764 0-.105-.016-.208-.019-.313-1.331 5.327-6.835 7.008-10.445 7.407z" fill="url(#SvgjsRadialGradient7388)" transform="matrix(3.4 0 0 3.4 59.81 56.401)"/><path d="M138.048 84.523c.506-2.285-5.191-3.973-12.711-3.051-7.518.923-12.738 5.524-12.052 7.844.38 1.286 10.639 3.245 14.253 2.847 3.664-.405 9.288-2.123 10.51-7.64z" fill="url(#SvgjsRadialGradient7393)" transform="matrix(3.4 0 0 3.4 59.81 56.401)"/><path d="M527.823 326.419c-14.307-6.725-31.79-7.344-47.05-3.417-8.173 1.907-16.88 4.369-24.013 8.97-6.613 3.858-11.985 8.5-17.007 14.245 4.563-5.783 9.428-10.601 15.718-14.518 7.739-4.814 16.215-7.8 25.038-9.914 15.596-3.829 33.058-2.958 47.314 4.634z" fill="#c27b55"/><path d="M544.928 331.706s-7.915 2.995-12.223 2.108c1.326-1.56 3.727-5.454 3.727-5.454s-6.3 1.874-10.714.11c-2.992-1.198-13.82-3.4-18.55-3.625-5.736-.28-17.248.425-22.899 1.441-11.471 2.068-30.549 8.942-39.705 24.426-.867 1.945-4.784 3.131-4.784 3.131s3.468-.73 3.907.143c.959 1.908-4.413 6.855-5.087 7.47.548-.493 4.383-3.86 5.855-3.288.208.075.466 1.32.527 1.639-1.02-8.248 16.45-22.936 40.977-25.854 25.568-3.04 44.938 2.527 43.217 10.058-4.155 18.183-23.276 23.844-35.734 25.176-8.588.922-28.213-1.961-39.695-5.225l-3.437-1.078c6.797 3.43 25.582 7.463 33.208 8.17 2.53.238 7.616.354 10.152.29 20.227-.538 34.544-10.81 39.879-24.685.425-1.115 1.68-2.104 2.849-2.366 5.453-1.228 17.326-6.158 17.326-6.158-7.888 1.228-11.842 2.292-18.037.2 6.049-2.263 9.241-6.63 9.241-6.63z"/><path d="M140.204 113.007c.035 22.275-17.995 40.365-40.273 40.396-22.274.036-40.361-17.993-40.396-40.272-.034-22.274 17.995-40.361 40.273-40.396 22.275-.034 40.363 17.995 40.396 40.272z" fill="url(#SvgjsRadialGradient2751)" transform="matrix(3.4 0 0 3.4 59.81 56.401)"/><path d="M135 55.999c0 19.329-15.671 35-35 35s-35-15.671-35-35 15.671-35 35-35 35 15.671 35 35z" fill="url(#SvgjsRadialGradient2755)" transform="matrix(3.4 0 0 3.4 59.81 56.401)"/><path d="M244.603 311.388c33.126-51.391 124.07 17.503 129.261-4.05 1.017-4.321-1.383-6.85-5.317-8.473-46.312-18.72-107.607-34.452-123.944 12.523zm310.413 0c-33.126-51.391-124.07 17.503-129.26-4.05-1.017-4.321 1.383-6.85 5.317-8.473 46.311-18.72 107.606-34.452 123.943 12.523z" fill="#2a232b"/><path d="M388.54 345.228s-4.994 39.688-7.232 47.413c-4.923 16.965-22.02 40.762-18.703 51.515 6.636 21.499 26.907 16.04 37.57 15.962 9.864-.079 28.817 5.54 32.709-8.461 1.256-4.52-1.575-15.944-1.575-15.944s-9.439 11.11-31.683 9.878c-6.348-.353-16.676-7.482-16.794-17.535-.153-13.627 6.433-25.119 7.872-38.646 1.085-10.274-2.163-44.182-2.163-44.182z" fill="#e1ac8f"/><path d="M418.397 453.92c3.837 0 4.876 1.164 4.876 2.603 0 1.442-1.196 3.663-4.876 2.606-4.049-1.153-11.114-.625-11.114-.625s7.269-4.584 11.114-4.584zm-36.671 0c-3.845.004-4.877 1.171-4.877 2.617-.004 1.439 1.153 3.51 4.877 2.603 4.105-1.007 11.11-.625 11.11-.625s-7.266-4.58-11.11-4.595zm49.58-18.207s5.315 6.901 4.212 14.191c-1.074 7.08-11.816 10.214-11.816 10.214s7.457-5.412 8.36-11.981c.422-3.078-.756-12.424-.756-12.424zm-65.628-7.09s-3.877 9.653-2.756 15.537c2.039 10.624 13.224 14.865 13.224 14.865s-6.98-7.279-9.46-13.716c-2.718-7.033-1.008-16.686-1.008-16.686z" fill="#c27b55"/><path d="M418.207 440.861c3.724-3.174 4.099-4.984 3.328-6.172-.768-1.193-3.003-1.946-6.12 1.885-3.437 4.212-10.91 7.332-10.91 7.332s9.979.125 13.702-3.045z" fill="#ffe4d6"/><path d="M523.633 538.268c53.895-190.178-9.283-295.006-16.597-327.946-1.505-6.778-9.267-26.09-9.267-26.09-28.91-16.602-45.402-20.26-79.459-20.26-22.913 0-35.199.548-57.466 8.105-23.383 24.243-91.183 111.069-118.79 176.01 13.66 53.933 22.28 231.588 15.775 247.184-50.291 1.693-32.516-438.848-32.516-438.848 17.495 0 336.845-14.145 354.859-14.145 0 .004 19.218 389.596-56.539 395.99z" fill="#6b4e40" opacity=".1"/><path d="M495.85 858.082c24.682-53.957 18.082-90.064 11.698-125.006-4.775-26.134-9.72-53.155-1.309-87.393-2.758-45.68 8.581-83.834 20.586-124.235 22.904-77.096 48.862-164.472-19.701-327.908l-.085-.21-.2-.113c-28.909-16.602-62.195-25.376-96.248-25.376-22.913 0-45.823 3.831-68.09 11.391-23.384 24.244-78.542 99.855-106.149 164.796.8 13.515 2.814 27.864 6.29 45.486 14.166 72.477 14.688 131.587 15.19 188.764.751 85.612 1.47 166.522 50.563 275.436a4463.06 4463.06 0 00-17.616-15.936c-60.808-54.786-100.981-90.982-112.13-173.531l-1.3.071s-1.077 31.437-1.534 44.667c-33.39-170.846-37.363-308.638-17.932-446.847 16.293-115.91 120.36-227.19 203.755-227.19 17.495 0 34.37 3.236 50.15 9.62l.24.095.234-.098c19.858-8.162 39.067-12.302 57.08-12.302 52.633 0 97.607 25.678 130.068 93.552 37.908 79.28 58.086 202.705 53.967 330.162-4.012 124.194-29.944 231.48-69.507 288.031 2.141-11.768 2.83-17.003 4.113-30.28l-1.267-.303c-24.375 68.275-56.28 104.923-87.142 140.364-1.24 1.441-2.487 2.87-3.724 4.293z" fill="#6b4e40"/><path d="M236.695 348.95c.963 12.095 2.889 25.066 5.947 40.567 14.169 72.477 14.688 131.595 15.19 188.764.755 85.612 1.47 166.523 50.563 275.437a4211.09 4211.09 0 00-17.616-15.936c-31.233-28.143-57.009-51.391-76.217-78.524-30.293-61.113-40.386-105.825-40.386-206.247 14.688 82.151 18.497 123.494 77.488 206.226-58.458-118.561-80.797-294.727-14.969-410.287zm409.563 121.709c-6.306 41.672-15.958 133.13-31.014 173.902 8.76-60.933 6.998-79.272 6.528-139.372-13.056 78.184-30.525 171.316-65.28 231.154 12.514-53.59 23.68-98.336 23.68-165.19-16.493 63.455-44.955 73.66-49.792 120.999 12.69-124.126 68.12-255.857 12.54-386.306 19.538 95.453.898 158.375-16.101 215.599-12.009 40.4-23.338 78.558-20.59 124.235-8.401 34.234-3.463 61.259 1.312 87.393 6.385 34.945 12.988 71.049-11.698 125.003 1.237-1.425 2.48-2.852 3.731-4.287 30.861-35.441 62.767-72.09 87.142-140.364l1.267.302c-1.283 13.278-1.972 18.513-4.113 30.281 37.996-54.31 56.878-155.417 62.388-273.35zM195.07 302.682c-7.98 18.434-21.261 211.658-10.719 253.426.15.577-.183-.585-.874-3.1-15.997-53.829 2.37-232.735 11.593-250.326zm-27.01 262.532c.494 5.868 1.052 9.416.97 8.71-.43-1.734-6.365-149.76-4.87-150.641.327-.072.225.06.333.085-3.492.968-.414 97.852 3.568 141.846zm433.518-55.555c-4.778 56.782-17.28 120.57-6.62 64.547 18.726-94.988 23.26-179.467.657-272.925 9.397 46.737 15.634 83.572 5.963 208.378z" fill="#5c3d2e"/><path d="M487.948 155.06c55.122 21.762 104.448 254.948 84.864 390.921 33.146-149.57 24.695-276.245-35.904-404.519 55.383 94.865 78.744 132.264 86.075 280.223 10.836-66.613 9.289-147.422-1.208-237.595-6.551-21.273-14.029-40.843-22.365-58.275-32.454-67.874-77.429-93.552-130.06-93.552-18.021 0-37.22 4.14-57.085 12.302l-.231.098-.239-.095c-15.781-6.384-32.656-9.62-50.15-9.62-41.075 0-88.468 28.126-127.303 69.948-55.11 86.665-72.396 193.407-69.53 294.914 3.264-81.583 42.432-163.167 91.392-224.355-35.904 88.383-62.016 180.164-65.28 275.345 19.584-132.573 115.77-300.04 189.312-326.334 22.521-8.053 50.484-4.372 57.495 21.823 3.878 6.275 5.856 14.023 4.52 22.368 4.593-3.828 9.11-6.676 13.595-8.62 10.899-8.978 22.662-8.703 32.102-4.977z" fill="#73574a"/><path d="M442.252 168.657c3.264-20.396-16.32-39.432-32.64-39.432-26.497 0-52.707 26.45-69.138 52.142a126.74 126.74 0 012.02-2.142c22.267-7.56 45.177-11.39 68.09-11.39 34.06 0 67.337 8.776 96.25 25.375l.195.112.088.211c.176.418.333.816.496 1.23-.884-11.87-13.568-26.11-19.79-30.763-16.313-10.198-29.64-10.953-45.571 4.657z" fill="#4c2d1e"/><path d="M476.866 109.342c47.958 9.807 69.909 64.366 82.775 113.143 2.354 9.209-21.885-98.172-82.775-113.143zm144.253 153.51c-8.555-73.46-37.696-148.384-99.513-184.848 86.62 56.435 100.809 194.482 99.513 184.848zM371.873 119.52c6.26-1.448-40.424 4.15-76.305 51.112-23.384 29.608-44.254 74.737-52.675 92.325 25.848-54.93 71.89-129.442 128.98-143.437zm-51.032-40.663c-52.045 17.462-84.505 56.86-102.18 105.535 34.912-85.945 116.897-110.287 102.18-105.535zm116.185-4.31c-13.568-29.625-40.444-44.358-80.973-39.045 39.716-2.821 66.07 15.501 76.629 39.813-22.287-25.257-62.715 4.015-59.48 2.88 3.192-2.353 45.477-16.117 61.184.655 7.167 15.81 11.084 35.34 12.288 57.653 1.339 29.672 1.156-15.474-.607-28.47-1.495-11.751-4.217-22.269-8.143-31.447 13.072-17.333 37.04-18.723 57.69-9.847l.135-.31c-20.358-10.704-50.047-10.898-58.723 8.118z" fill="#6b4e40"/><path d="M445.646 166.546c17.368-15.073 42.41-12.68 58.88 22.775l1.99 4.487c103.982 247.868-9.06 318.234-.913 451.702-19.934 81.23 34.39 119.2-12.37 216.604 32.022-37.029 67.828-74.856 94.1-148.448-1.4 14.518-2.128 19.587-4.635 33.143C709.518 571.86 683.36-70.196 412.024 43.933c-87.704-42.744-226.73 47.906-254.788 218.1-24.493 148.577-12.609 292.966 19.03 452.653.081-2.247 1.73-50.348 1.73-50.348 12.354 91.462 59.57 125.602 132.322 192.028-83.082-181.918-31.034-282.79-67.043-466.995-2.937-14.889-5.353-29.914-6.332-45.075 27.232-64.053 81.858-139.535 105.754-164.425l3.949-4.113c.323-.323 17.593-17.496 18.376-18.254 26.768-11.048 56.383-13.659 72.921 12.213-9.912-27.167-42.621-27.33-67.662-17.142 27.564-25.308 60.978-34.986 72.431 13.872.336 1.425.268 4.066.268 4.066s1.442-2.903 2.666-3.967zm199.225 291.26c-1.24 42.03-8.294 186.184-57.636 279.662 3.48-15.331 5.745-28.31 6.597-43.515 15.487-50.378 19.107-88.722 19.675-92.121-18.115 93.04-50.686 174.558-112.996 250.084 44.178-101.405-8.62-122.273 5.45-201.681 3.157 37.467 14.007 73.768 25.26 108.948 1.6-33.555 8.268-74.772 23.733-104.393-5.872 8.427-23.053 47.774-25.883 89.096-47.21-171.836 17.443-169.898 26.667-369.37 8.5 71.889-.389 96.677-.389 96.677 18.67-65.165 1.773-110.227-2.696-146.579-5.526-44.925-33.799-116.178-38.038-125.74-15.88-34.568-39.811-56.1-68.969-35.32-27.332-82.12-95.615-1.913-115.738 21.11-29.01 33.195-73.505 95.477-95.344 150.556 0 .034-.033.068-.033.102-15.775 39.83-19.917 70.855-23.892 98.036 7.526-38.708 15-61.942 24.251-84.2.588 11.25 1.86 22.469 3.525 33.55 29.366 195.954-22.254 281.8 65.476 464.959-112.442-108.924-125.223-141.63-129.58-273.917-.778 84.942 3.058 35.737-.458 104.36-18.826-132.853-34.866-229.635-8.16-402.888C195.941 78.99 336.322 12.754 411.897 46.04c98.886-41.978 159.837 20.223 199.756 119.112 9.058 22.45 34.171 126.764 18.279 212.152 0 0 7.164-21.511 11.946-63.568 4.586 46.326 4.39 96.704 2.993 144.07z" fill="#3d2012"/><path d="M436.394 380.49c-10.064-7.99-15.912-14.179-22.474-30.907-.136-1.19.782-3.774 1.768-4.454 1.054-.714 4.046-.782 5.066 0l15.64 35.36zm-73.168 0c10.064-7.99 15.912-14.179 22.44-30.907.136-1.19-.782-3.774-1.768-4.454-1.054-.714-4.046-.782-5.032 0l-15.64 35.36z" fill="#b26801" opacity=".2"/><path d="M132.33 106.33c-17.81 0-27.13-17.83-27.13-27.39 0-6.3 6.57-10.16 17.57-10.32.11 0 11.18-.16 11.34-.16 3.72 0 10.26 1.36 12.85 3.91 4.21 4.15 4.15 8.86 4.11 11.66 0 .24-.01.47-.01.68.01 10-8.18 21.62-18.73 21.62z" fill="url(#SvgjsLinearGradient6703)" transform="matrix(3.4 0 0 3.4 59.81 56.401)"/><path d="M67.67 106.33c17.81 0 27.12-17.83 27.12-27.39 0-6.3-6.57-10.16-17.57-10.32-.11 0-11.18-.16-11.34-.16-3.72 0-10.26 1.36-12.85 3.91-4.21 4.15-4.15 8.86-4.11 11.66 0 .24.01.47.01.68 0 10 8.19 21.62 18.74 21.62z" fill="url(#SvgjsLinearGradient6707)" transform="matrix(3.4 0 0 3.4 59.81 56.401)"/><path d="M573.482 342.103c0 .748-.034 1.462-.034 2.108-45.424-11.322-99.892-18.938-155.55-24.038 3.026-18.7 24.684-29.988 59.33-30.498.374 0 38.012-.544 38.556-.544 12.648 0 34.884 4.624 43.69 13.294 14.348 14.144 14.144 30.124 14.008 39.678zm-251.09-52.428c-.374 0-38.012-.544-38.556-.544-12.648 0-34.884 4.624-43.69 13.294-2.822 2.788-5.066 5.61-6.868 8.466 44.472.714 95.88 2.482 147.832 6.256-4.794-16.864-26.01-26.996-58.718-27.472z" fill="#fff" opacity=".05"/><path d="M586.81 331.733c0 .782-.51 1.496-1.258 1.802-3.842 1.462-6.732 1.632-11.662 1.53v-8.534c3.978.238 6.936-.17 10.71-1.292a1.662 1.662 0 011.53.272c.442.34.68.85.68 1.36v4.862zm-374 0c0 .782.51 1.496 1.258 1.802 3.876 1.462 6.732 1.632 11.662 1.53v-8.534c-3.978.238-6.936-.17-10.71-1.292a1.662 1.662 0 00-1.53.272c-.442.34-.68.85-.68 1.36v4.862zm362.406 4.012c0-12.988-5.202-25.466-14.484-34.578s-32.674-14.008-45.696-13.804l-37.842.544c-35.632.51-61.472 12.852-61.472 36.89v.918c0 29.41 30.294 94.01 94.01 94.01 36.176 0 65.484-39.134 65.484-75.276v-8.704zm-3.536 8.67c0 33.184-27.064 71.74-61.914 71.74-59.364 0-90.44-59.738-90.44-91.358 0-20.332 21.658-32.776 57.97-33.32.544 0 38.012-.544 38.522-.544 12.036 0 34.102 4.556 42.466 12.784 14.994 14.824 13.396 31.994 13.396 40.698zm-347.276 0c0 36.176 29.308 75.276 65.484 75.276 63.716 0 94.01-64.6 94.01-94.01v-.918c0-24.038-25.84-36.346-61.472-36.89l-37.876-.51c-12.988-.204-36.414 4.692-45.696 13.804a48.6 48.6 0 00-14.484 34.578v8.67zm16.966-40.698c8.364-8.228 30.396-12.784 42.432-12.784.51 0 38.012.544 38.522.544 36.312.51 57.97 12.988 57.97 33.32 0 31.62-31.076 91.358-90.44 91.358-34.884 0-61.914-38.556-61.914-71.74 0-8.704-1.598-25.874 13.43-40.698zm158.44 14.756c-8.024 0-16.15 4.114-16.15 4.114v8.398h1.428c.884 0 1.632-.782 1.632-1.734v-2.958c0-1.156.646-2.176 1.632-2.584 2.72-1.122 8.16-2.176 11.458-2.176 3.298.034 8.738 1.054 11.458 2.176.986.408 1.666 1.428 1.666 2.584v2.958c0 .952.714 1.734 1.632 1.734h1.428v-8.364c-.034 0-8.16-4.148-16.184-4.148zm94.792-32.232a1.6 1.6 0 00-.476-1.122 1.565 1.565 0 00-1.122-.442c-36.924 1.122-56.542 3.672-93.194 4.556-36.652-.884-56.27-3.434-93.194-4.556-.408 0-.816.136-1.122.442-.306.306-.476.68-.476 1.122v1.53c9.588.17 74.256 5.1 94.792 5.066 21.284-.034 57.936-4.42 94.792-5.066v-1.53z" fill="#ca8100"/><path d="M574.57 334.045v-7.14c.476.034.952.034 1.394.034 2.958 0 5.542-.408 8.806-1.394h.272c.34 0 .476.068.646.17.272.204.408.51.408.816v4.896c0 .51-.306.986-.816 1.156-3.366 1.258-5.882 1.496-9.35 1.496-.408-.034-.884-.034-1.36-.034zm-350.914 0c-3.468 0-5.984-.238-9.35-1.496a1.25 1.25 0 01-.816-1.156v-4.896a1.019 1.019 0 011.02-1.02c3.604 1.054 6.154 1.428 9.112 1.428.442 0 .918 0 1.394-.034v7.14c-.442.034-.918.034-1.36.034zm286.076 84.626c-65.552 0-93.33-66.776-93.33-93.33v-.918c0-22.1 22.746-35.632 60.826-36.21l38.59-.544c12.852 0 35.462 4.726 44.472 13.634 9.078 8.942 14.28 21.352 14.28 34.102v8.636c-.034 34.544-28.322 74.63-64.838 74.63zm-32.47-128.214c-36.72.544-58.65 13.226-58.65 34 0 32.13 31.314 92.038 91.12 92.038 35.258 0 62.594-38.93 62.594-72.42l.034-2.312c.136-9.384.34-25.058-13.634-38.862-8.5-8.364-30.77-12.988-42.942-12.988-.476 0-38.216.544-38.522.544zM289.888 418.671c-36.516 0-64.804-40.12-64.804-74.596v-8.636c0-12.716 5.202-25.16 14.28-34.102 9.01-8.874 31.62-13.634 44.472-13.634l38.59.544c38.08.544 60.826 14.076 60.826 36.21v.918c-.034 26.554-27.812 93.296-93.364 93.296zm-6.086-128.758c-12.172 0-34.442 4.624-42.942 12.988-14.008 13.804-13.77 29.478-13.634 38.862l.034 2.312c0 33.49 27.336 72.42 62.594 72.42 59.84 0 91.12-59.908 91.12-92.038 0-20.74-21.93-33.456-58.65-34-.272 0-38.012-.544-38.522-.544zm131.478 40.052v-7.276c-1.666-.782-8.636-3.876-15.47-3.876-6.834 0-13.804 3.094-15.47 3.876v7.276h.748c.51 0 .952-.476.952-1.054v-2.958c0-1.428.816-2.686 2.074-3.23 2.788-1.156 8.364-2.21 11.73-2.244 3.332.034 8.942 1.088 11.73 2.244 1.224.51 2.074 1.802 2.074 3.23v2.958c0 .578.408 1.054.952 1.054h.68zm-15.47-38.148c9.86 0 22.882-.952 38.012-2.04 17.17-1.224 36.584-2.652 56.134-3.026v-.85a.929.929 0 00-.272-.646c-.17-.17-.374-.238-.646-.238-17.646.544-31.484 1.428-44.846 2.244-15.028.952-29.24 1.836-48.382 2.312-19.142-.476-33.32-1.36-48.382-2.312-13.362-.85-27.2-1.7-44.88-2.244a.977.977 0 00-.612.238.929.929 0 00-.272.646v.85c4.08.136 14.348.782 27.166 1.598 22.678 1.462 53.72 3.434 66.81 3.434h.17z" fill="#fed922"/><path d="M575.25 332.685v-5.78h.714c3.06 0 5.644-.408 9.01-1.428l.442.34v4.896a.51.51 0 01-.374.51c-3.264 1.224-5.712 1.462-9.112 1.462h-.68zm-351.594 0c-3.4 0-5.848-.238-9.112-1.462a.59.59 0 01-.374-.51v-4.896l.17-.374c3.672 1.054 6.29 1.462 9.316 1.462h.714v5.78h-.714zm286.076 84.626c-65.076 0-92.65-66.266-92.65-92.65v-.918c0-21.692 22.474-34.986 60.146-35.53l38.59-.544c12.716 0 35.088 4.658 43.962 13.43 8.942 8.806 14.076 21.046 14.076 33.626v8.636c0 34.204-28.016 73.95-64.124 73.95zm-32.504-128.214c-37.128.544-59.296 13.498-59.296 34.68 0 32.368 31.518 92.718 91.8 92.718 35.632 0 63.274-39.304 63.274-73.1l.034-2.312c.136-9.486.374-25.364-13.838-39.338-8.602-8.5-31.144-13.192-43.418-13.192-.476 0-38.216.544-38.556.544zm-187.34 128.214c-36.108 0-64.124-39.746-64.124-73.95v-8.636c0-12.546 5.134-24.82 14.076-33.626 8.874-8.772 31.246-13.43 43.996-13.43l38.59.544c37.672.544 60.146 13.838 60.146 35.53v.918c-.034 26.384-27.608 92.65-92.684 92.65zm-6.086-128.758c-12.274 0-34.782 4.692-43.418 13.192-14.212 14.008-13.974 29.886-13.838 39.338l.034 2.312c0 33.796 27.642 73.1 63.274 73.1 60.282 0 91.8-60.35 91.8-92.718 0-21.182-22.168-34.136-59.296-34.68-.306 0-38.012-.544-38.556-.544zM414.6 328.605v-6.154c-2.006-.918-8.5-3.638-14.79-3.638-6.256 0-12.784 2.72-14.79 3.638v6.154h.068c.136 0 .272-.17.272-.374v-2.958c0-1.7.986-3.23 2.482-3.842 2.856-1.19 8.568-2.278 11.968-2.278 3.4.034 9.112 1.122 11.968 2.278 1.496.612 2.482 2.176 2.482 3.842v2.958c0 .238.136.374.272.374h.068zm-14.79-38.148c9.826 0 22.848-.952 37.978-2.04 16.898-1.224 36.04-2.618 55.352-2.992l-.068-.374c-17.612.544-31.382 1.428-44.88 2.278-15.028.952-29.206 1.836-48.416 2.312-19.108-.476-33.32-1.36-48.484-2.312-13.328-.85-27.132-1.7-44.948-2.04v.204c4.454.17 14.246.782 26.554 1.598 22.644 1.462 53.618 3.434 66.776 3.434h.136z" fill="#f8fbb1"/><defs id="SvgjsDefs1001"><radialGradient id="SvgjsRadialGradient2751" cx="100" cy="113" r="40" gradientUnits="userSpaceOnUse" class="svga-on-canvas-facehighlight-gradient-single-0"><stop id="SvgjsStop2752" stop-opacity=".5" stop-color="#ffe4d6" offset="0"/><stop id="SvgjsStop2753" stop-opacity="0" stop-color="#f0c7b1" offset=".9"/></radialGradient><radialGradient id="SvgjsRadialGradient2755" cx="100" cy="57" r="36" gradientUnits="userSpaceOnUse" class="svga-on-canvas-facehighlight-gradient-single-1"><stop id="SvgjsStop2756" stop-opacity=".5" stop-color="#ffe4d6" offset="0"/><stop id="SvgjsStop2757" stop-opacity="0" stop-color="#f0c7b1" offset=".9"/></radialGradient><radialGradient id="SvgjsRadialGradient4351" cx="-558.588" cy="-490.918" r="84.646" gradientTransform="matrix(.096 -.0248 .0245 .0961 140.548 120.358)" gradientUnits="userSpaceOnUse" class="svga-on-canvas-eyesiris-gradient-left-1"><stop id="SvgjsStop4352" stop-opacity=".8" stop-color="#fff" offset="0"/><stop id="SvgjsStop4353" stop-opacity="0" stop-color="#fff" offset="1"/></radialGradient><radialGradient id="SvgjsRadialGradient4355" cx="-565.337" cy="-492.691" r="84.644" gradientTransform="matrix(.0991 .00089 -.0011 .0991 130.377 136.353)" gradientUnits="userSpaceOnUse" class="svga-on-canvas-eyesiris-gradient-left-2"><stop id="SvgjsStop4356" stop-opacity=".8" stop-color="#fff" offset="0"/><stop id="SvgjsStop4357" stop-opacity="0" stop-color="#fff" offset="1"/></radialGradient><radialGradient id="SvgjsRadialGradient4374" cx="-578.76" cy="-490.73" r="84.646" gradientTransform="matrix(.096 -.0248 .0245 .0961 192.48 119.84)" gradientUnits="userSpaceOnUse" class="svga-on-canvas-eyesiris-gradient-right-1"><stop id="SvgjsStop4375" stop-opacity=".8" stop-color="#fff" offset="0"/><stop id="SvgjsStop4376" stop-opacity="0" stop-color="#fff" offset="1"/></radialGradient><radialGradient id="SvgjsRadialGradient4378" cx="-584.778" cy="-487.329" r="84.644" gradientTransform="matrix(.0991 .00089 -.0011 .0991 182.31 135.839)" gradientUnits="userSpaceOnUse" class="svga-on-canvas-eyesiris-gradient-right-2"><stop id="SvgjsStop4379" stop-opacity=".8" stop-color="#fff" offset="0"/><stop id="SvgjsStop4380" stop-opacity="0" stop-color="#fff" offset="1"/></radialGradient><radialGradient id="SvgjsRadialGradient6517" cx="100" cy="225" r="250" gradientUnits="userSpaceOnUse" class="svga-on-canvas-backs-gradient-single-1"><stop id="SvgjsStop6518" stop-opacity="0" stop-color="#ecf0f1" offset="0"/><stop id="SvgjsStop6519" stop-opacity="1" stop-color="#c6dce2" offset="1"/></radialGradient><radialGradient id="SvgjsRadialGradient7345" cx="129.05" cy="85.956" r="15.117" gradientTransform="scale(-1 1) rotate(5.981 22.869 -1851.746)" gradientUnits="userSpaceOnUse" class="svga-on-canvas-eyesback-gradient-left-0"><stop id="SvgjsStop7346" stop-opacity="1" stop-color="#fff" offset="0"/><stop id="SvgjsStop7347" stop-opacity="1" stop-color="#fcfdfd" offset=".316"/><stop id="SvgjsStop7348" stop-opacity="1" stop-color="#f4f7f8" offset=".505"/><stop id="SvgjsStop7349" stop-opacity="1" stop-color="#e5ecef" offset=".661"/><stop id="SvgjsStop7350" stop-opacity="1" stop-color="#d8e2e7" offset=".76"/></radialGradient><radialGradient id="SvgjsRadialGradient7352" cx="129.049" cy="85.956" r="15.117" gradientTransform="rotate(5.981 122.875 62.424)" gradientUnits="userSpaceOnUse" class="svga-on-canvas-eyesback-gradient-right-0"><stop id="SvgjsStop7353" stop-opacity="1" stop-color="#fff" offset="0"/><stop id="SvgjsStop7354" stop-opacity="1" stop-color="#fcfdfd" offset=".316"/><stop id="SvgjsStop7355" stop-opacity="1" stop-color="#f4f7f8" offset=".505"/><stop id="SvgjsStop7356" stop-opacity="1" stop-color="#e5ecef" offset=".661"/><stop id="SvgjsStop7357" stop-opacity="1" stop-color="#d8e2e7" offset=".76"/></radialGradient><radialGradient id="SvgjsRadialGradient7359" cx="129.05" cy="85.956" r="15.117" gradientTransform="scale(-1 1) rotate(5.981 22.869 -1851.746)" gradientUnits="userSpaceOnUse" class="svga-on-canvas-eyesfront-gradient-left-0"><stop id="SvgjsStop7360" stop-opacity="1" stop-color="#fff" offset="0"/><stop id="SvgjsStop7361" stop-opacity="1" stop-color="#fcfdfd" offset=".316"/><stop id="SvgjsStop7362" stop-opacity="1" stop-color="#f4f7f8" offset=".505"/><stop id="SvgjsStop7363" stop-opacity="1" stop-color="#e5ecef" offset=".661"/><stop id="SvgjsStop7364" stop-opacity="1" stop-color="#d8e2e7" offset=".76"/></radialGradient><radialGradient id="SvgjsRadialGradient7368" cx="121.786" cy="84.496" fx="133.039" fy="84.527" r="16.003" gradientTransform="matrix(.9998 .0208 .0166 -.7998 -44.952 149.543)" gradientUnits="userSpaceOnUse" class="svga-on-canvas-eyesfront-gradient-left-3"><stop id="SvgjsStop7369" stop-opacity="1" stop-color="#e1ac8f" offset="0"/><stop id="SvgjsStop7370" stop-opacity=".3" stop-color="#e1ac8f" offset=".7"/><stop id="SvgjsStop7371" stop-opacity="0" stop-color="#f0c7b1" offset="1"/></radialGradient><radialGradient id="SvgjsRadialGradient7373" cx="69.124" cy="107.529" r="29.525" gradientTransform="translate(-1.68 1.728) scale(1.0336)" gradientUnits="userSpaceOnUse" class="svga-on-canvas-eyesfront-gradient-left-4"><stop id="SvgjsStop7374" stop-opacity="0" stop-color="#000" offset=".95"/><stop id="SvgjsStop7375" stop-opacity=".3" stop-color="#000" offset="1"/></radialGradient><radialGradient id="SvgjsRadialGradient7379" cx="129.049" cy="85.956" r="15.117" gradientTransform="rotate(5.981 122.875 62.424)" gradientUnits="userSpaceOnUse" class="svga-on-canvas-eyesfront-gradient-right-0"><stop id="SvgjsStop7380" stop-opacity="1" stop-color="#fff" offset="0"/><stop id="SvgjsStop7381" stop-opacity="1" stop-color="#fcfdfd" offset=".316"/><stop id="SvgjsStop7382" stop-opacity="1" stop-color="#f4f7f8" offset=".505"/><stop id="SvgjsStop7383" stop-opacity="1" stop-color="#e5ecef" offset=".661"/><stop id="SvgjsStop7384" stop-opacity="1" stop-color="#d8e2e7" offset=".76"/></radialGradient><radialGradient id="SvgjsRadialGradient7388" cx="121.786" cy="84.496" fx="133.039" fy="84.527" r="16.003" gradientTransform="matrix(-.9998 .0208 -.0166 -.7998 244.952 149.543)" gradientUnits="userSpaceOnUse" class="svga-on-canvas-eyesfront-gradient-right-3"><stop id="SvgjsStop7389" stop-opacity="1" stop-color="#e1ac8f" offset="0"/><stop id="SvgjsStop7390" stop-opacity=".3" stop-color="#e1ac8f" offset=".7"/><stop id="SvgjsStop7391" stop-opacity="0" stop-color="#f0c7b1" offset="1"/></radialGradient><radialGradient id="SvgjsRadialGradient7393" cx="69.124" cy="107.529" r="29.525" gradientTransform="matrix(-1.0336 0 0 1.0336 201.68 1.728)" gradientUnits="userSpaceOnUse" class="svga-on-canvas-eyesfront-gradient-right-4"><stop id="SvgjsStop7394" stop-opacity="0" stop-color="#000" offset=".95"/><stop id="SvgjsStop7395" stop-opacity=".3" stop-color="#000" offset="1"/></radialGradient><linearGradient id="SvgjsLinearGradient4361" x1="122.283" y1="93.047" x2="123.61" y2="91.466" gradientTransform="translate(-52)" gradientUnits="userSpaceOnUse" class="svga-on-canvas-eyesiris-gradient-left-5"><stop id="SvgjsStop4362" stop-opacity="1" stop-color="#fff" offset="0"/><stop id="SvgjsStop4363" stop-opacity="0" stop-color="#fff" offset="1"/></linearGradient><linearGradient id="SvgjsLinearGradient4365" x1="127" y1="85" x2="125" y2="87" gradientTransform="translate(-50)" gradientUnits="userSpaceOnUse" class="svga-on-canvas-eyesiris-gradient-left-6"><stop id="SvgjsStop4366" stop-opacity="1" stop-color="#fff" offset="0"/><stop id="SvgjsStop4367" stop-opacity="0" stop-color="#fff" offset="1"/></linearGradient><linearGradient id="SvgjsLinearGradient4369" x1="130" y1="81" x2="126" y2="85" gradientTransform="translate(-50)" gradientUnits="userSpaceOnUse" class="svga-on-canvas-eyesiris-gradient-left-7"><stop id="SvgjsStop4370" stop-opacity="1" stop-color="#fff" offset="0"/><stop id="SvgjsStop4371" stop-opacity="0" stop-color="#fff" offset="1"/></linearGradient><linearGradient id="SvgjsLinearGradient4384" x1="120.284" y1="93.047" x2="121.611" y2="91.467" gradientUnits="userSpaceOnUse" class="svga-on-canvas-eyesiris-gradient-right-5"><stop id="SvgjsStop4385" stop-opacity="1" stop-color="#fff" offset="0"/><stop id="SvgjsStop4386" stop-opacity="0" stop-color="#fff" offset="1"/></linearGradient><linearGradient id="SvgjsLinearGradient4388" x1="127" y1="85" x2="125" y2="87" gradientUnits="userSpaceOnUse" class="svga-on-canvas-eyesiris-gradient-right-6"><stop id="SvgjsStop4389" stop-opacity="1" stop-color="#fff" offset="0"/><stop id="SvgjsStop4390" stop-opacity="0" stop-color="#fff" offset="1"/></linearGradient><linearGradient id="SvgjsLinearGradient4392" x1="130" y1="81" x2="126" y2="85" gradientUnits="userSpaceOnUse" class="svga-on-canvas-eyesiris-gradient-right-7"><stop id="SvgjsStop4393" stop-opacity="1" stop-color="#fff" offset="0"/><stop id="SvgjsStop4394" stop-opacity="0" stop-color="#fff" offset="1"/></linearGradient><linearGradient id="SvgjsLinearGradient6691" x1="130" y1="69" x2="130" y2="109" gradientUnits="userSpaceOnUse" class="svga-on-canvas-glasses-gradient-single-0"><stop id="SvgjsStop6692" stop-opacity="1" stop-color="#000" offset="0"/><stop id="SvgjsStop6693" stop-opacity=".8" stop-color="#000" offset="1"/></linearGradient><linearGradient id="SvgjsLinearGradient6703" x1="128" y1="106" x2="128" y2="69" gradientUnits="userSpaceOnUse" class="svga-on-canvas-glasses-gradient-single-1"><stop id="SvgjsStop6704" stop-opacity=".95" stop-color="#26120b" offset="0"/><stop id="SvgjsStop6705" stop-opacity="1" stop-color="#26120b" offset="1"/></linearGradient><linearGradient id="SvgjsLinearGradient6707" x1="72" y1="106" x2="72" y2="69" gradientUnits="userSpaceOnUse" class="svga-on-canvas-glasses-gradient-single-2"><stop id="SvgjsStop6708" stop-opacity=".95" stop-color="#26120b" offset="0"/><stop id="SvgjsStop6709" stop-opacity="1" stop-color="#26120b" offset="1"/></linearGradient><linearGradient id="SvgjsLinearGradient6987" x1="100" y1="141" x2="100" y2="138" gradientUnits="userSpaceOnUse" class="svga-on-canvas-mouth-gradient-single-0"><stop id="SvgjsStop6988" stop-opacity="1" stop-color="#e8b9a0" offset=".1"/><stop id="SvgjsStop6989" stop-opacity="1" stop-color="#e1ac8f" offset="1"/></linearGradient><linearGradient id="SvgjsLinearGradient7402" x1="99.98" y1="171.27" x2="99.98" y2="136.351" gradientUnits="userSpaceOnUse" class="svga-on-canvas-chinshadow-gradient-single-0"><stop id="SvgjsStop7403" stop-opacity=".8" stop-color="#e1ac8f" offset="0"/><stop id="SvgjsStop7404" stop-opacity="1" stop-color="#c27b55" offset=".7"/></linearGradient></defs></svg>