<svg xmlns="http://www.w3.org/2000/svg" width="600" height="600" overflow="hidden"><path d="M465.303 287.96c3.361-12.54 5.616-26.82 6.242-38.377h31.128c4.952 10.598 7.177 16.416 10.53 21.42-4.968-1.945-10.705-3.962-21.084-13.425.859 2.306 11.675 33.715 12.385 39.13-9.156-7.54-12.515-15.691-18.125-21.77 3.256 22.603 5.057 34.55-7.166 63.462-7.455-41.856-12.131-49.262-13.91-50.44zm-330.167-33.984c-.586 24.181-7.825 42.001-33.337 63.304 7.992-2.538 15.147-6.56 27.732-13.662 2.16-5.75 4.077-12.314 4.833-18.36-2.214 21.33-15.115 36.037-3.44 61.228 1.636-21.014 8.786-35.934 27.251-47.938-.583.402-1.933 1.385-3.704 2.94a81.64 81.64 0 016.299-4.666c-4.231-13.054-7.725-32.478-7.855-42.846h-17.779zm-2.776 17.91c-4.01-4.982-7.668-12.594-9.239-17.91h11.99c-.412 3.745-1.239 12.064-2.75 17.91z" fill="#a83c25"/><path d="M511.092 269.301c-3.397-5.07-6.183-10.935-8.88-16.75h2.921c2.754 6.069 5.883 13.535 9.442 19.423-9.477-2.808-14.256-5.643-21.357-12.744 8.559 21.25 9.882 31.617 14.013 40.338-12.123-7.344-13.905-16.362-20.223-23.57 4.077 21.032 8.046 37.583-9.261 67.742 0-16.389-3.483-37.398-9.585-53.46 8.88 8.505 10.311 36.504 11.013 46.116a144.76 144.76 0 006.78-19.899c4.725-18.036.486-34.506-.405-42.66 5.165 3.343 10.938 15.855 18.63 22.194-4.863-11.826-5.4-17.847-14.577-41.958 7.587 7.263 14.388 12.447 21.489 15.228zm-380.7 75.168c-9.126-21.924 1.755-37.88 3.97-59.21-.757 6.047-2.944 11.798-5.104 17.55-12.582 7.1-17.847 11.123-25.839 13.661 25.512-21.303 31.128-37.773 31.717-61.954h-.292c-.413 3.745-1.239 10.263-2.75 16.108-4.01-4.981-6.91-11.383-8.482-16.7l-3.25.03c1.876 6.08 5.556 13.298 11.002 19.154-4.4 18.873-18.468 33.21-32.454 45.576 8.991-.27 21.276-7.506 29.133-12.582-5.643 15.39-6.02 28.782 4.78 47.44-.665-28.853 14.258-45.571 21.645-52.057 1.771-1.555 3.121-2.538 3.704-2.94-18.465 12.01-26.144 24.913-27.78 45.924z" fill="#891b03"/><path d="M557.286 592.197c-16.221-27.427-36.38-32.327-52.995-37.627-17.073-5.444-52.235-8.581-71.413-12.42-18.522-3.708-62.513-15.63-63.015-36.418-.518-21.778 11.586-108.243 11.586-108.243H241.783s12.115 86.462 11.594 108.243c-.497 20.787-44.496 32.71-63.02 36.418-19.181 3.839-54.338 6.976-71.41 12.42-16.621 5.3-36.785 10.197-53.007 37.627-9.838 16.632-16.221 43.559-16.221 73.259h523.8c-.003-29.7-6.375-56.627-16.233-73.26z" fill="#f3d4cf"/><path d="M369.863 505.735c6.737 29.508 49.046 36.984 70.991 41.377 59.154 11.823 91.184 13.862 114.202 52.755 7.838 13.274 14.74 42.833 16.097 65.213 4.955.786 1.434-47.066-13.867-72.883-26.303-44.475-78.54-40.865-124.408-50.045-18.522-3.707-62.513-15.63-63.015-36.417zm-115.787 0c-.502 20.787-44.493 32.71-63.015 36.417-45.867 9.18-98.104 5.57-124.408 50.045-15.3 25.82-18.821 73.67-13.867 72.883 1.358-22.38 8.26-51.94 16.097-65.213 23.015-38.893 55.048-40.932 114.202-52.755 21.946-4.393 64.255-11.872 70.991-41.377z" fill="#fff4f3"/><path d="M180.226 564.244s77.33.807 90.377 5.09c6.248 2.046 22.604 15.208 22.604 15.208s-17.7-8.559-23.376-10.146c-13.184-3.683-89.605-10.152-89.605-10.152zm131.19 28.312c5.543-.11 21.295-10.257 21.295-10.257s-15.05 5.559-19.823 5.832c-4.026.232-17.188-3.343-17.188-3.343s11.172 7.857 15.716 7.768zm46.475-19.554c18.225-4.908 80.422-8.72 80.422-8.72s-64.235-1.394-82.377 4.657c-6.08 2.03-20.417 13.932-20.417 13.932s16.373-8.257 22.372-9.869z" fill="#e4b3ab"/><path d="M557.286 592.197c-26.3-44.472-78.63-40.884-124.408-50.045-18.522-3.707-62.513-15.63-63.015-36.417-.518-21.779 11.586-108.243 11.586-108.243H241.783s12.115 86.462 11.594 108.243c-.497 20.787-44.496 32.71-63.02 36.417-19.181 3.84-54.338 6.977-71.41 12.42-16.621 5.3-36.785 10.198-53.007 37.627-9.838 16.632-16.221 43.56-16.221 73.26h523.8c-.003-29.703-6.375-56.63-16.233-73.262z" fill="none" stroke="#c5796d" stroke-width="4.05"/><path d="M100.045 171.737c5.593-.009 13.488-3.608 20.908-8.44.448-6.688 1.717-17.243 2.734-25.146-13.955-1.813-33.739-1.771-47.623.105 1.008 7.831 2.258 18.226 2.713 24.89 7.533 4.917 15.593 8.6 21.268 8.591z" fill="url(#SvgjsLinearGradient4019)" transform="matrix(2.7 0 0 2.7 41.97 52.559)"/><path d="M46.044 695.229c.57-118.214 24.154-136.812 116.373-150.722 35.367-5.336 68.25-10.325 85.854-35.632-3.701-3.89-4.86-9.02-1.277-12.904-1.906-2.926-1.879-8.702 3.85-9.182.535 3.86-1.08 2.362 7.496 5.991 53.66 22.672 75.36 11.121 106.245.716 6.453-2.185 7.276-2.617 7.978-8.092 1.366.537 2.284 1.509 2.406 1.922 1.512 2.414-.883 5.49-1.304 7.949 2.832 2.721 1.193 6.294-1.164 9.455 41.888 69.415 177.868 4.164 200.453 119.948 3.756 33.428 4.347 69.395 4.39 72.78-2.7-.002-355.67.919-531.3-2.23z" fill="#1d282e"/><path d="M557.756 599.867c15.868 23.904 12.987 50.78 18.46 65.589 0-29.7-6.372-56.627-16.23-73.26-26.303-44.474-70.44-40.326-116.308-49.506-43.413-8.689-59.076-17.607-69.117-33.759 32.19 54.765 140.23 26.212 183.195 90.936zm-308.38-90.936c-10.042 16.15-25.704 25.07-69.118 33.759-45.867 9.18-90.004 5.032-116.307 49.507-9.855 16.632-16.23 43.559-16.23 73.259 5.473-14.81 2.592-41.685 18.46-65.589 42.968-64.724 151.008-36.171 183.195-90.936z" fill="#2d373d"/><path d="M244.948 499.241c-6.966 24.843 109.814 23.196 81.332 23.914-23.803.618-87.575-5.33-81.332-23.914zm98.852 21.195c28.066-9.245 31.539-21.04 31.539-21.04-.135.142-.535 1.381-1.804 2.55-2.449 2.687-29.133 18.15-32.746 19.351 0 0 1.2-.234 3.011-.86zm-15.703-4.547c38.356-4.838 45.481-19.564 45.481-19.564-11.645 17.874-80.975 28.075-126.765-.08 21.903 15.4 50.077 23.47 81.284 19.644z" fill="#101a1f"/><path d="M573.219 624.621c-22.634-116.04-159.805-51.052-200.394-119.877 2.39-3.219 3.918-6.888 1.026-9.666 1.093-2.3 2.794-5.703 1.377-7.83-.165-.554-1.31-1.699-2.886-2.212l-.165 1.242h.003c-.75 6.28-3.319 4.855-16.095 10.044-50.093 20.896-86.257.454-104.166-6.477-.675-.189-.705-1.728-.705-2.721-.005.008-.037.013-.048.018l-.09-.634c-1.654.07-3.73.829-4.665 2.392 0 .027-.027.027-.027.054-.964 1.51-1.193 4.725.27 6.996-3.048 3.313-2.857 8.632 1.269 12.96-40.948 58.641-169.001 7.738-195.237 105.678-5.65 24.432-6.912 75.88-6.912 80.919 0 0 168.413 3.086 531.603 2.214a.375.375 0 01.243 0c0-2.711-.643-39.65-4.401-73.1zM46.07 694.527c.73-15.85 2.295-42.471 5.994-69.633 24.333-109.35 150.908-51.22 196.479-115.371 15.263 15.527 66.898 17.606 83.835 13.097-25.083 3.257-99.814-6.215-85.347-26.19.85 1.202 4.23 4.288 5.765 4.399-.106.208.118-.222.005-.011-.613-.861-4.417-4.844-4.663-5.468-.913-1.134-1.218-4.7-.459-5.967.389-.764 1.283-1.223 2.09-1.517.97 6.529-1.44 3.362 21.589 11.775 53.757 19.642 77.15.605 96.552-6.075 4.463-1.442 5.176-5.176 5.29-6.561.17.13.318.256.356.378 1.736 2.133.326 5.065-.513 7.67-.027.027-.027.079-.054.108-.575 1.523-1.623 3.621-2.563 4.971 1.537-1.14 2.285-2.816 3.1-4.377 5.894 8.046-21.692 20.472-30.699 24.975 5.346-2.138 20.374-4.279 29.487-15.363 43.907 74.793 189.88-.391 201.744 141.105 2.438 29.082 2.17 26.4 3.294 50.787-277.428-4.123-232.991-4.304-531.282-2.732z"/><path d="M164.666 276.292c-3.966-6.478-17.95-20.091-27.837-17.602-8.043 2.03-16.286 8.638-16.286 19.9-.003 17.447 4.039 24.864 6.752 32.78 2.311 6.736 10.57 19.083 15.555 23.87 6.137 5.884 16.084 24.897 17.29 26.841 1.904 3.07 5.069 7.954 10.917 8.138 8.883.278 19.13-5.608 19.772-9.288 3.475-19.97-15.85-67.783-26.163-84.64z" fill="#f3d4cf" stroke="#c5796d" stroke-width="4.05"/><path d="M159.679 319.864c-.383-1.482.019-3.98.41-6.39.354-2.199.689-4.275.486-5.741-.77-5.497-5.108-15.946-7.943-21.608-3.262-6.512-11.116-14.72-17.734-16.835-2.735-.877-4.538.17-5.58 1.232-.767.78-.937 1.695-.686 1.803.25.108.82-.65 1.647-1.363.675-.586 1.666-1.086 3.03-.983-.549 2.738-8.473 11.243-3.73 27.672 2.22 7.692 5.379 13.886 5.946 14.777a20.6 20.6 0 00.43 2.743c2.675 11.602 19.671 30.732 23.719 35.05.747.798 1.53 1.27 1.725 1.08.194-.193-.27-.98-1.015-1.786-3.996-4.29-20.882-23.373-23.463-34.568-4.736-20.506 5.173-20.852 12.147-33.21a65.091 65.091 0 012.681 4.83 107.598 107.598 0 011.785 3.775c-1.237 1.942-13.66 16.125-10.5 27.473 1.169 4.185 10.203 9.58 13.697 11.059 1.922.815 2.643 2.03 3.48 3.437.97 1.634 2.07 7.447 5.265 8.786.65.273 1.236.386 1.758.386a3.27 3.27 0 002.09-.745c.05.713.048 1.63.021 2.476-.03 1.093.124 1.992.397 2.014s.561-.845.597-1.936c.043-1.342.037-3.002-.208-3.799-.716-2.34-2.906-4.981-5.222-7.776-2.282-2.754-4.639-9.558-5.23-11.853zm-24.246-10.287c-6.27-18.214 2.681-33.933 4.088-36.436 2.451 2.095 7.187 4.9 8.948 7.64-8.408 14.367-12.51 4.375-13.036 28.796zm30.424 30.607c-2.895-1.212-3.864-6.804-4.801-8.38-.848-1.426-1.725-2.9-3.945-3.843-.483-.205-1.015-.515-1.56-.874-10.425-15.334.785-22.97 2.773-24.4.61 1.955 1.069 3.745 1.269 5.181.183 1.32-.157 3.418-.484 5.446-.405 2.514-.826 5.114-.391 6.798.648 2.506 3.078 9.4 5.427 12.234 2.084 2.52 4.223 5.111 4.954 7.225-.31.424-1.298 1.429-3.242.613z" fill="#c5796d"/><path d="M458.566 276.292c3.966-6.478 17.95-20.091 27.84-17.602 8.043 2.03 16.283 8.638 16.283 19.9.006 17.447-4.039 24.864-6.75 32.78-2.313 6.736-10.573 19.083-15.557 23.87-6.137 5.884-16.084 24.897-17.29 26.841-1.904 3.07-5.069 7.954-10.917 8.138-8.885.278-19.132-5.608-19.775-9.288-3.472-19.97 15.852-67.783 26.166-84.64z" fill="#f3d4cf" stroke="#c5796d" stroke-width="4.05"/><path d="M458.323 331.714c-2.314 2.798-4.503 5.435-5.222 7.776-.243.797-.248 2.457-.205 3.8.038 1.09.321 1.957.597 1.935s.426-.92.394-2.014c-.027-.845-.027-1.763.027-2.476a3.251 3.251 0 002.087.745c.521 0 1.107-.113 1.755-.386 3.197-1.339 4.299-7.152 5.268-8.786.84-1.406 1.555-2.621 3.48-3.437 3.491-1.48 12.525-6.871 13.695-11.059 3.159-11.35-9.267-25.531-10.5-27.472.626-1.39 1.233-2.676 1.781-3.775a64.768 64.768 0 012.684-4.83c6.971 12.358 16.88 12.703 12.145 33.21-2.584 11.194-19.465 30.277-23.46 34.568-.743.804-1.208 1.593-1.019 1.784.195.19.975-.28 1.726-1.08 4.05-4.32 21.046-23.449 23.72-35.048.204-.891.347-1.807.431-2.743.564-.891 3.723-7.085 5.943-14.777 4.746-16.43-3.18-24.935-3.729-27.673 1.361-.105 2.352.397 3.032.983.824.716 1.399 1.472 1.645 1.364.253-.111.078-1.024-.686-1.804-1.045-1.061-2.849-2.109-5.584-1.231-6.617 2.114-14.47 10.322-17.733 16.834-2.833 5.662-7.172 16.111-7.941 21.608-.2 1.47.132 3.545.486 5.74.391 2.414.791 4.91.41 6.391-.586 2.298-2.943 9.102-5.227 11.853zm16.443-50.93c1.76-2.74 6.496-5.545 8.945-7.64 1.407 2.5 10.357 18.222 4.093 36.436-.529-24.424-4.633-14.432-13.038-28.796zm-20.636 58.787c.732-2.114 2.873-4.706 4.957-7.225 2.347-2.835 4.78-9.728 5.427-12.234.432-1.684.016-4.282-.391-6.798-.327-2.028-.67-4.126-.486-5.446.2-1.436.659-3.226 1.271-5.181 1.982 1.43 13.195 9.066 2.768 24.4-.543.359-1.075.67-1.56.874-2.22.943-3.095 2.417-3.945 3.842-.935 1.577-1.904 7.169-4.798 8.381-1.939.816-2.93-.189-3.243-.613z" fill="#c5796d"/><path d="M471.048 259.816h-.013c-.033.143-22.996 109.909-45.142 143.87-17.42 26.713-81.988 80.832-113.507 80.88-31.512.055-96.22-53.886-113.722-80.548-22.25-33.89-45.59-143.56-45.622-143.705h-.002a163.293 163.293 0 01-5.406-41.531C147.491 128.402 220.95 55.04 311.72 54.9c90.776-.14 164.465 72.989 164.6 163.369.024 14.353-1.807 28.274-5.27 41.547z" fill="#f3d4cf"/><path d="M381.894 70.438c51.581 27.67 86.603 81.959 86.506 144.385-.025 14.354-1.901 28.272-5.409 41.532h-.002c-.033.143-23.371 109.814-45.625 143.704-16.054 24.465-72.238 79.71-105.389 79.71-33.153 0-89.332-55.248-105.389-79.71-22.253-33.89-45.595-143.558-45.625-143.704h-.002a163.293 163.293 0 01-5.406-41.532c-.1-62.426 34.925-116.715 86.5-144.385-55.874 26.196-94.524 82.777-94.421 148.344a163.293 163.293 0 005.405 41.53h.003c.035.147 23.374 109.815 45.627 143.706 11.923 18.165 48.932 55.336 77.49 69.611a141.457 141.457 0 01-4.317-1.936c14.601 7.763 28.792 12.86 39.725 12.874.132 0 .278-.014.41-.014s.278.014.41.014c10.93-.014 25.121-5.111 39.726-12.874-1.453.68-2.892 1.326-4.323 1.936 28.558-14.272 65.57-51.448 77.493-69.611 22.25-33.89 45.594-143.56 45.621-143.705h.006a163.293 163.293 0 005.405-41.531c.108-65.567-38.537-122.148-94.419-148.344z" fill="#ebc3bd"/><path d="M471.048 259.816h-.013c-.033.143-22.996 109.909-45.142 143.87-17.42 26.713-81.988 80.832-113.507 80.88-31.512.055-96.22-53.886-113.722-80.548-22.25-33.89-45.59-143.56-45.622-143.705h-.002a163.293 163.293 0 01-5.406-41.531C147.491 128.402 220.95 55.04 311.72 54.9c90.776-.14 164.465 72.989 164.6 163.369.024 14.353-1.807 28.274-5.27 41.547z" fill="none" stroke="#c5796d" stroke-width="4.05"/><path d="M99.825 142.068c-3.24 0-4.753-2.802-4.753-2.802s4.797.781 9.279-.064c.001 0-1.676 2.866-4.526 2.866z" fill="url(#SvgjsLinearGradient3521)" transform="matrix(2.7 0 0 2.7 41.97 52.559)"/><path d="M299.04 428.8c-.357-.104-.622-.401-.562-.769.057-.37.408-.604.772-.564 9.752 2.314 16.1 1.785 23.668-.116.392-.094.73.167.802.527s-.17.69-.521.799c-8.265 2.44-16.246 2.532-24.16.124zm-26.363-17.255c.845-.389 1.571-.232 2.897-.31 3.831-.673 8.445-.872 12.258-1.65 3.64-.74 7.49-1.787 11.226-1.612 4.018.192 7.774 1.806 11.753 2.238 3.783.408 7.312-.618 10.943-1.503 4.164-1.016 8.127-.775 12.312.016 5.233.98 10.19 2.314 15.36 2.802 1.572.149.986 1.115.087 1.226-4.625.554-9.264-.183-14.024-.672-3.847-.394-7.743-.888-11.54.057-4.098 1.023-9.28 2.219-12.433 2.181-3.51-.046-6.807-1.452-10.217-2.179-4.187-.883-8.345-.054-12.547.386-5.232.543-9.914.918-15.063.127-1.377-.21-1.393-.931-1.012-1.107z" fill="#c5796d"/><path d="M76.925 80.872c4.607.618 8.048 3.822 11.044 9 .004.006.013.004.018.009.008.032.022.063.029.094.29 1.188-.752 2.198-2.068 2.988-4.747.924-9.302 2.162-14.155 1.625-9.719-1.074-10.042-6.145-10.551-7.458-.291-1.299-.374-2.626-.397-3.883 1.844.032 3.983-1.056 5.781-1.555 2.105-.584 6.818-1.288 10.299-.82z" fill="url(#SvgjsRadialGradient4891)" transform="matrix(2.7 0 0 2.7 41.97 55.259)"/><path d="M266.607 298.934c-3.324 12.21-15.92 19.405-28.158 16.048-12.226-3.35-19.448-15.978-16.12-28.193 3.322-12.22 15.944-19.413 28.173-16.057 12.222 3.348 19.437 15.979 16.105 28.202z" fill="#7085b3" stroke="#2b4785" stroke-width="1.35"/><path d="M263.04 299.215c-3.245 9.377-13.033 14.847-22.564 12.233-8.796-2.414-14.35-10.854-13.63-19.777a82.496 82.496 0 0110.542-.151c-.038.126-.106.234-.138.367-1.172 4.304 1.555 8.815 6.091 10.06 4.55 1.245 9.183-1.247 10.355-5.551a7.69 7.69 0 00.25-1.682c3.106 1.136 6.162 2.602 9.094 4.5z" fill="#8d9ec2"/><path d="M247.577 286.012c-4.598-1.315-9.288 1.309-10.476 5.888-1.188 4.555 1.577 9.326 6.173 10.644 4.603 1.32 9.296-1.307 10.486-5.867 1.197-4.577-1.582-9.345-6.183-10.665zm1.005 16.189c-1.912.594-3.89-.195-4.417-1.769-.508-1.571.623-3.315 2.551-3.896 1.923-.594 3.894.197 4.425 1.758.524 1.566-.62 3.313-2.56 3.907z" opacity=".9"/><path d="M232.271 304.944c-1.412.848-3.529.092-4.736-1.71-1.21-1.781-1.028-3.917.392-4.77 1.407-.84 3.54-.081 4.738 1.706 1.194 1.788 1.02 3.926-.394 4.774z" fill="#fff" opacity=".6"/><path d="M262.487 291.865c-3.235 1.939-8.097.195-10.854-3.901-2.754-4.099-2.341-8.994.896-10.927 3.23-1.947 8.1-.2 10.84 3.899 2.752 4.095 2.352 8.988-.882 10.93z" fill="#fff" opacity=".9"/><path d="M191.82 292.859c0 37.281 22.364 67.497 49.95 67.497s49.95-30.216 49.95-67.497c0-37.285-22.364-67.503-49.95-67.503s-49.95 30.218-49.95 67.503zm15.5-2.344c-.785-3.507-1.01-7.09-1.071-10.484 4.978.086 10.754-2.851 15.608-4.198 5.686-1.583 18.412-3.483 27.81-2.22 12.44 1.669 21.73 10.32 29.819 24.3.01.016.035.01.049.024.021.087.059.17.078.254.783 3.208-2.03 5.935-5.584 8.068-12.817 2.495-25.115 5.837-38.218 4.387-26.244-2.894-27.116-16.586-28.49-20.13z" fill="#f3d4cf"/><path d="M75.005 100.952c9.299 1.281 17.73-4.324 18.83-12.528 1.101-8.205-5.541-15.895-14.842-17.18-9.301-1.28-17.729 4.326-18.829 12.53-1.1 8.203 5.54 15.89 14.841 17.178zM60.844 83.249c1.844.032 3.983-1.056 5.781-1.555 2.106-.586 6.819-1.29 10.3-.822 4.607.618 8.048 3.822 11.044 9 .004.006.013.004.018.009.008.032.022.063.029.094.29 1.188-.752 2.198-2.068 2.988-4.747.924-9.302 2.162-14.155 1.625-9.719-1.074-10.042-6.145-10.551-7.458-.292-1.297-.375-2.624-.398-3.881z" fill="url(#SvgjsRadialGradient4917)" transform="matrix(2.7 0 0 2.7 41.97 55.259)"/><path d="M61.241 87.132c-.291-1.299-.374-2.626-.397-3.883 1.844.032 3.983-1.056 5.781-1.555 2.106-.586 6.819-1.29 10.3-.822 4.607.618 8.048 3.822 11.044 9 .004.006.013.004.018.009.008.032.022.063.029.094.29 1.188-.752 2.198-2.068 2.988-4.747.924-9.302 2.162-14.155 1.625-9.72-1.072-10.043-6.143-10.552-7.456z" fill="url(#SvgjsRadialGradient4922)" transform="matrix(2.7 0 0 2.7 41.97 55.259)"/><path d="M248.325 260.33c8.94 1.357 17.745 5.864 25.953 11.604 1.755 1.228 3.769 2.624 6.939 4.38-2.252-.511-4.358-1.802-6.326-2.987 2.052 2.155 3.982 4.752 5.57 7.274-7.101-9.863-20.21-16.972-31.25-19.122-10.603-2.065-29.676.384-43.659 8.381 12.744-9.245 31.674-11.218 42.773-9.53z" fill="#c5796d"/><path d="M279.716 297.88a.242.242 0 01-.227-.115c-8.09-13.62-17.38-22.051-29.822-23.677-9.393-1.23-22.118.621-27.81 2.163-5.04 1.364-11.086 4.43-16.189 4.099-4.736-.31-10.12-4.08-12.963-6.785 3.046 2.276 11.3 2.772 13.768 2.19-.762-.198-5.003-2.852-5.824-3.64 2 1.139 9.766 2.327 12.263 1.695-.715-.378-4.28-2.813-5.106-3.774.378.329 9.121 1.998 13.592.507 26.833-8.937 48.692-1.22 59.028 26.865a.31.31 0 01-.03.284.34.34 0 01-.246.148l-.434.04zm-73.035-8.137c-1.74 6.704 2.95 21.279 28.08 22.963 17.852 1.194 42.379-7.39 39.333-6.82-12.841 2.43-25.158 5.703-38.289 4.29-29.759-3.204-26.889-19.944-29.124-20.433z" fill="#582311"/><path d="M123.075 80.872c-4.607.618-8.048 3.822-11.044 9-.004.006-.013.004-.018.009-.008.032-.022.063-.029.094-.29 1.188.752 2.198 2.068 2.988 4.747.924 9.302 2.162 14.155 1.625 9.719-1.074 10.042-6.145 10.551-7.458.291-1.299.374-2.626.397-3.883-1.844.032-3.983-1.056-5.781-1.555-2.105-.584-6.818-1.288-10.299-.82z" fill="url(#SvgjsRadialGradient4899)" transform="matrix(2.7 0 0 2.7 41.97 55.259)"/><path d="M401.607 298.934c-3.324 12.21-15.92 19.405-28.158 16.048-12.226-3.35-19.448-15.978-16.12-28.193 3.322-12.22 15.944-19.413 28.172-16.057 12.223 3.348 19.438 15.979 16.106 28.202z" fill="#7085b3" stroke="#2b4785" stroke-width="1.35"/><path d="M398.04 299.215c-3.245 9.377-13.033 14.847-22.564 12.233-8.796-2.414-14.35-10.854-13.63-19.777a82.496 82.496 0 0110.542-.151c-.038.126-.106.234-.138.367-1.172 4.304 1.555 8.815 6.091 10.06 4.55 1.245 9.183-1.247 10.355-5.551a7.69 7.69 0 00.25-1.682c3.106 1.136 6.162 2.602 9.094 4.5z" fill="#8d9ec2"/><path d="M382.577 286.012c-4.598-1.315-9.288 1.309-10.476 5.888-1.188 4.555 1.577 9.326 6.173 10.644 4.603 1.32 9.296-1.307 10.486-5.867 1.196-4.577-1.582-9.345-6.183-10.665zm1.005 16.189c-1.912.594-3.89-.195-4.417-1.769-.508-1.571.623-3.315 2.551-3.896 1.922-.594 3.893.197 4.425 1.758.524 1.566-.62 3.313-2.56 3.907z" opacity=".9"/><path d="M367.271 304.944c-1.412.848-3.529.092-4.736-1.71-1.21-1.781-1.028-3.917.392-4.77 1.406-.84 3.54-.081 4.738 1.706 1.194 1.788 1.02 3.926-.394 4.774z" fill="#fff" opacity=".6"/><path d="M397.487 291.865c-3.235 1.939-8.098.195-10.854-3.901-2.754-4.099-2.341-8.994.896-10.927 3.23-1.947 8.1-.2 10.84 3.899 2.752 4.095 2.352 8.988-.882 10.93z" fill="#fff" opacity=".9"/><path d="M382.17 225.356c-27.586 0-49.95 30.221-49.95 67.503 0 37.281 22.364 67.497 49.95 67.497s49.95-30.216 49.95-67.497c0-37.285-22.364-67.503-49.95-67.503zm5.961 85.293c-13.106 1.45-25.401-1.895-38.218-4.388-3.553-2.135-6.367-4.86-5.584-8.067.02-.086.057-.17.078-.254.014-.013.038-.008.05-.024 8.088-13.98 17.379-22.632 29.818-24.3 9.396-1.264 22.121.637 27.81 2.22 4.854 1.347 10.632 4.284 15.609 4.198-.063 3.394-.287 6.974-1.072 10.484-1.377 3.542-2.25 17.234-28.49 20.131z" fill="#f3d4cf"/><path d="M139.836 83.774c-1.101-8.205-9.528-13.811-18.829-12.53-9.301 1.285-15.942 8.976-14.842 17.18 1.1 8.204 9.531 13.809 18.83 12.528 9.301-1.288 15.941-8.975 14.841-17.178zm-1.077 3.358c-.509 1.313-.832 6.384-10.551 7.458-4.854.537-9.408-.702-14.155-1.625-1.316-.791-2.358-1.8-2.068-2.988.007-.032.021-.063.029-.094.005-.005.014-.003.018-.009 2.996-5.178 6.437-8.382 11.044-9 3.48-.468 8.193.236 10.3.822 1.798.499 3.938 1.587 5.781 1.555-.024 1.255-.107 2.582-.398 3.881z" fill="url(#SvgjsRadialGradient4938)" transform="matrix(2.7 0 0 2.7 41.97 55.259)"/><path d="M138.759 87.132c.291-1.299.374-2.626.397-3.883-1.844.032-3.983-1.056-5.781-1.555-2.106-.586-6.819-1.29-10.3-.822-4.607.618-8.048 3.822-11.044 9-.004.006-.013.004-.018.009-.008.032-.022.063-.029.094-.29 1.188.752 2.198 2.068 2.988 4.747.924 9.302 2.162 14.155 1.625 9.72-1.072 10.043-6.143 10.552-7.456z" fill="url(#SvgjsRadialGradient4943)" transform="matrix(2.7 0 0 2.7 41.97 55.259)"/><path d="M375.614 260.33c-8.94 1.357-17.744 5.864-25.952 11.604-1.755 1.228-3.77 2.624-6.94 4.38 2.252-.511 4.358-1.802 6.327-2.987-2.052 2.155-3.983 4.752-5.57 7.274 7.1-9.863 20.21-16.972 31.25-19.122 10.602-2.065 29.675.384 43.658 8.381-12.744-9.245-31.673-11.218-42.773-9.53z" fill="#c5796d"/><path d="M343.786 297.843a.332.332 0 01-.245-.149.319.319 0 01-.03-.283c10.336-28.085 32.198-35.802 59.027-26.865 4.472 1.49 13.217-.181 13.592-.508-.826.959-4.39 3.397-5.105 3.775 2.497.632 10.262-.556 12.263-1.696-.824.789-5.063 3.443-5.824 3.64 2.468.583 10.722.086 13.767-2.19-2.843 2.706-8.227 6.475-12.962 6.785-5.103.335-11.149-2.732-16.19-4.098-5.688-1.542-18.414-3.391-27.81-2.163-12.441 1.625-21.732 10.058-29.821 23.676a.242.242 0 01-.227.116l-.435-.04zm44.345 12.33c-13.127 1.413-25.447-1.857-38.288-4.29-3.046-.57 21.48 8.017 39.333 6.82 25.132-1.684 29.819-16.256 28.08-22.963-2.233.492.637 17.232-29.125 20.434z" fill="#582311"/><path d="M140.204 113.007c.035 22.275-17.995 40.365-40.273 40.396-22.274.036-40.361-17.993-40.396-40.272-.034-22.274 17.995-40.361 40.273-40.396 22.275-.034 40.363 17.995 40.396 40.272z" fill="url(#SvgjsRadialGradient2754)" transform="matrix(2.7 0 0 2.7 41.97 52.559)"/><path d="M135 55.999c0 19.329-15.671 35-35 35s-35-15.671-35-35 15.671-35 35-35 35 15.671 35 35z" fill="url(#SvgjsRadialGradient2758)" transform="matrix(2.7 0 0 2.7 41.97 52.559)"/><path d="M243.927 239.042c-11.947-1.282-57.38 10.028-57.38 10.028s45.33-18.198 64.144-15.3c14.007 2.154 38.871 13.707 34.306 19.815-3.675 4.916-15.126-11.756-41.07-14.543zm94.316 13.822c-4.625-6.189 20.499-17.037 36.575-18.371 19.215-1.593 61.867 11.03 61.867 11.03s-42.93-7.096-55.018-5.687c-26.503 3.089-39.7 18.006-43.424 13.028z" fill="#b7513b"/><path d="M314.416 376.056c-1.085 1.172-1.971 1.03-2.992-.189 0 0-13.014-8.307-11.361-12.117 2.61-6.03 26.284 0 26.284 0l-11.931 12.306z" fill="#e4b3ab"/><path d="M296.82 358.369s13.33-34.436 14.488-41.807c2.198 11.964-5.176 38.591-5.737 44.026-.678 6.599 7.141 14.842 7.141 14.842.643 1.469.168 1.841-1.066.845l-13.708-9.056c-3.246-2.467-3.246-4.82-1.118-8.85zm22.113 7.184c1.89.387 2.287 1.067 2.141 1.769-.146.713-.956 1.687-2.662.796-1.877-.972-5.414-1.417-5.414-1.417s4.045-1.536 5.935-1.148z" fill="#c5796d"/><path d="M425.904 130.14c-24.94-23.732-120.282-2.054-149.032.646-27.38 2.111-63.52-81.915-117.733 133.593.121 10.365 3.483 28.71 7.55 41.764.39-.273.771-.562 1.163-.827 0 0-1.399 8.794 16.356 38.853-.94-21.797 3.273-37.51 6.729-57.817 42.414-53.965 82.05-66.62 112.212-76.019-20.25 23.639-40.281 45.333-49.046 69.026 36.847-25.855 87.505-77.987 87.505-77.987s-3.789 12.698-74.75 77.987c29.546-7.234 84.632-36.934 123.217-94.368 7.414 12.15-33.48 83.144-34.633 85.863 20.69-16.432 48.814-39.517 56.039-66.474 0 0 4.242 10.916 7.187 23.314 7.77 32.838 7.841 73.659 9.259 84.038 4.495-23.547 5.197-49.902 5.189-49.559 10.543 48.311 1.131 82.064.95 93.755 14.035-28.175 28.631-61.822 32.878-93.242-.005-.002-31.371-136.865-41.04-132.545z" fill="#b7513b" opacity=".1"/><path d="M502.638 235.797c-.216-14.553-3.024-37.584-7.887-50.706 8.856 9.153 20.007 19.953 29.106 25.65-12.042-10.422-15.77-19.332-42.986-76.41-16.71-35.046-27.775-72.225-60.42-76.599-11.014-1.512-21.736 2.673-31.804 6.993-25.947-23.733-58.293-33.294-88.209-30.594-91.476 6.777-115.876 65.856-164.8 77.682 7.668 2.241 20.563-1.264 27.907-4.72-10.125 13.662-6.539 12.234-28.868 34.563-9.099 9.018-17.504 20.099-28.466 26.606 14.712-1.839 22.442-13.052 43.961-24.58-3.105 4.967-14.172 21.853-32.208 39.133-7.749 7.398-20.517 17.777-29.427 24.068 6.507-2.592 25.62-10.06 42.141-24.71-8.556 12.233-33.104 34.937-21.991 80.678 2.246-19.996-.003-44.32 19.03-56.417-2.117 8.913-10.298 27.6-4.329 47.812h29.525c.127 10.365 3.62 29.522 7.854 42.576.408-.272.802-.561 1.212-.826 0 0 1.356 8.794 19.826 38.853-.982-21.797.6-37.511 4.194-57.818 44.131-53.965 85.37-66.62 116.75-76.018-21.07 23.638-37.298 50.86-46.42 74.552 29.823-31.482 91.35-80.37 91.35-80.37s-.982 13.138-74.821 78.424c25.512-15.647 80.184-40.517 120.328-97.951 7.716 12.15-29.212 83.144-30.413 85.863 21.53-16.433 39.544-44.918 47.074-71.874 0 0 10.034 16.316 13.087 28.714 8.087 32.838 5.357 60.159 6.826 70.538 4.676-23.547 8.213-36.402 8.205-36.059 10.978 48.311-1.63 87.464-1.814 99.155 14.596-28.172 32.594-67.492 37.014-98.912h31.315c-1.807-11.685-.468-11.718-1.842-17.296z" fill="#b7513b"/><path d="M520.507 153.231c-10.29-.459-15.865.267-27.961-.705-1.81-4.13-7.393-14.985-9.283-19.089 9.447 8.37 29.063 18.957 37.244 19.794z" fill="#982a13"/><path d="M151.01 142.377c-21.026 11.405-30.524 22.837-42.272 24.783 10.962-6.507 17.442-16.173 26.541-25.19 22.33-22.33 19.602-22.41 29.727-36.073-7.03 3.308-19.216 7.66-26.97 6.067 36.504-2.916 76.658-49.388 119.934-43.205-44.537 4.949-82.261 37.109-106.96 73.618zm211.766 119.154c30.207-62.495 32.14-71.76 30.412-85.863-36.266 51.886-110.365 91.843-120.328 97.95 44.091-38.982 63.631-65.766 71.013-75.394-61.085 48.567-61.042 49.367-87.545 77.341 15.29-39.709 7.514-30.907 46.421-74.552-16.91 5.065-30.674 9.96-41.693 15.168 1.53-3.623 1.992-5.535 7.128-13.049 19.235-11.774 56.932-40.586 83.932-49.898-9.528 7.514-14.432 16.964-23.868 24.559 14.467-3.661 32.149-5.551 60.048-21.05-1.493 1.194 48.39-23.303 32.224-51.38 9.947 7.087 2.565 36.007-2.116 62.923 10.497 14.507 12.838 32.17 16.289 50.174.326-5.92 1.269-20.239.043-26.05 6.167 16 15.03 37.301 14.92 60.7 11.923-31.615 2.714-60.151 2.714-89.851 10.235 17.093 14.283 48.346 16.718 67.589 2.473-12.372 4.104-21.67-1.469-37.89 3.516 4.386 8.34 7.653 11.75 13.5-4.646-25.5-13.116-43.313-24.85-61.648 11.137 12.876 27.55 23.849 32.95 40.049-2.7-29.7-13.5-59.4-32.4-83.7 10.107 11.79 19.163 23.582 27.165 36.026 25.969 54.494 29.79 63.31 41.626 73.553-9.099-5.697-20.25-16.494-29.106-25.65 4.863 13.122 7.67 36.153 7.887 50.706 1.374 5.576.035 5.88 1.841 17.564H473.17c-4.42 31.42-22.418 70.47-37.014 98.641.178-11.412 12.188-48.994 2.549-95.712-.238-1.145-.473-2.287-.734-3.442.008-.343-3.53 12.514-8.206 36.058-1.469-10.379 1.261-37.7-6.825-70.537-3.054-12.399-13.087-28.715-13.087-28.715-20.037 50.938-41.55 70.184-47.077 71.88zm-64.66-92.375c-24.497 7.168-48.246 26.503-67.146 45.403 5.4-8.1 8.1-18.9 16.2-27 13.5-27 37.8-45.9 56.7-67.5-40.5 24.3-64.8 59.4-94.5 94.5 8.1-16.2 16.2-37.8 29.7-51.3-27 13.5-32.4 40.5-51.3 62.1 10.8-86.4 91.8-186.3 186.3-156.6-94.341-36.985-187.523 62.292-209.534 167.8-.092-10.234 1.42-67.687 23.234-89.5-21.6 16.2-27 43.2-40.5 62.1-2.198-10.995 2.765-20.199 6.14-29.071-2.846 4.255-8.144 7.446-11.421 12.182 6.839-21.8 13.578-44.444 34.98-58.711-12.76 6.38-22.182 16.092-34.835 22.577-5.805 7.949-13.85 17.92-23.676 27.335-7.749 7.398-18.846 15.876-27.756 22.167 6.507-2.592 25.11-12.69 41.77-25.623-7.966 12.879-33.13 34.398-24.03 79.407.89-20.034 1.403-42.336 20.438-54.432-2.117 8.913-10.919 29.857-4.949 50.069h28.982c.127 10.365 3.62 28.709 7.854 41.763.408-.272.802-.561 1.212-.826 0 0 .859 5.36 9.882 21.819 2.592 4.727 5.824 10.325 9.947 17.034-.983-21.797.6-37.511 4.193-57.818 26.576-32.497 52.097-50.004 75.055-60.85 1.933-4.581 9.552-23.336 37.06-47.025z" fill="#a83c25"/><path d="M147.648 147.134c31.241-61.303 93.965-78.915 116.356-78.837-48.462 10.97-82.887 32.373-116.356 78.837zM345.142 63.54c-35.027-2.263-100.383 20.285-135.354 93.53 38.716-69.23 110.047-95.156 135.354-93.53zm86.473 10.303c-1.804-.653-3.397-1.939-5.209-2.643-21.09-8.195-40.383 6.428-42.025 20.665 3.167-13.972 24.21-26.338 47.234-18.022zm-16.538 10.093c34.833-8.106 62.732 56.87 63.442 59.578-5.63-21.565-29.978-69.75-62.524-61.882-10.705 2.59-19.002 10.674-25.134 19.435 6.39-7.703 14.172-14.84 24.216-17.131zM291.803 187.494c18.954-16.033 105.362-42.582 102.317-80.203-.519 34.05-68.583 51.667-102.317 80.203zm84.678-89.934c-5.638-2.614-17.145-13.333-46.78 4.417-47.785 28.617-77.515 76.715-84.672 88.684 22.81-31.614 93.087-110.851 131.452-93.101z" fill="#982a13"/><path d="M251.96 77.769c-52.33 18.53-87.424 56.378-87.424 56.378 25.07-27.364 48.311-46.604 87.424-56.378zm-67.573 62.848c4.93-8.468 44.01-51.86 66.617-59.587-23.893 6.326-53.865 37.687-66.617 59.587zm53.103-6.532s40.381-49.925 84.732-60.099c-34.936 2.884-65.907 30.96-84.732 60.1zm50.633 14.912c2.484-3.499 50.903-43.513 72.374-49.037-23.474 3.305-65.389 39.201-72.374 49.037zm41.718-18.038c2.919-3.994 22.486-23.744 46.078-26.798-21.233.516-33.812 10.023-46.078 26.798zm-21.4 27.785c12.455-16.256 46.785-23.23 69.835-47.112-21.04 19.475-52.63 24.66-69.835 47.112zm41.693 9.456c2.706 0 50.485-24.9 60.486-35.308 9.193-9.566 10.632-19.589 3.769-24.098 9.247 10.317-3.4 20.483-8.357 24.708-4.69 4.001-25.628 18.268-55.898 34.698.003 0 2.62-1.423 0 0zm51.46-18.374c17.466-12.544 28.641-35.629 18.187-44.658-3.616-3.12-9.278-4.258-13.954-4.2 4.693-.058 11.208 1.679 14.302 5.38 10.813 12.9-9.958 34.87-23.922 44.286-20.07 13.532-44.01 21.508-67.392 27.124 25.107-5.392 51.646-12.755 72.778-27.932zm-158.582-4.852s34.838-42.97 71.393-56.907c4.31-1.642 8.75-2.239 13.233-3.135-34.082 3.216-65.791 31.917-84.626 60.042zm-9.34 23.912c2.7-1.934 48.611-55.823 90.615-71.99-35.71 8.96-70.184 41.012-90.615 71.99zm239.393-21.139c-1.61-2.702-14.734-49.81-42.603-44.29 18.695-1.79 33.145 24.907 42.603 44.29zm-24.753 51.227c.396-13.108 5.518-41.199-18.136-63.39 12.457 14.815 18.581 39.571 18.136 63.39z" fill="#c66854"/><path d="M536.124 218.19c-23.196-19.035-24.165-23.463-42.04-64.125 12.205 1.026 22.654.162 32.563-.54-20.412-1.998-35.503-16.983-43.279-23.436-20.439-43.443-36.396-86.292-82.998-71.307a99.938 99.938 0 00-10.908 4.24c-20.736-22.465-52.434-33.859-81.864-33.724-85.833.324-126.44 64.557-162.647 78.57-4.32 1.674-9.126 2.943-13.716 4.023 8.154 2.943 15.309 3.483 28.808-2.025-16.74 22.248-8.613 10.584-28.511 31.482-8.964 9.342-17.361 21.816-30.105 27.675 10.719 1.35 18.063-1.863 27.378-8.208 6.453-4.347 13.068-9.882 17.927-13.365-19.547 29.808-65.636 62.802-65.636 62.802 15.093-2.862 30.834-11.826 43.497-21.978-.46.621-.945 1.242-1.404 1.863-6.642 8.775-13.041 18.225-16.092 28.917-5.454 19.008-2.862 36.826 3.942 55.32-1.728-16.388-1.998-50.165 15.309-65.823-3.308 9.377-11.419 27.772-5.635 46.508h3.218c-5.97-20.21 2.832-41.156 4.95-50.069-19.036 12.096-19.549 34.398-20.44 54.432-9.099-45.009 16.065-66.528 24.03-79.407-16.659 12.933-35.262 23.031-41.769 25.623 8.91-6.291 20.007-14.769 27.756-22.167 18.036-17.28 30.132-36.504 33.237-41.472-21.519 11.529-31.077 23.193-42.957 25.164 10.962-6.507 17.442-16.173 26.541-25.191 22.33-22.329 19.602-22.41 29.727-36.072-7.344 3.456-20.33 8.073-27.999 5.832 48.924-11.826 71.955-69.47 163.431-76.248 29.919-2.7 62.262 5.508 88.209 29.241 10.068-4.32 20.79-7.965 31.803-6.453 32.646 4.374 42.096 41.013 58.806 76.059 27.216 57.078 31.482 65.178 43.524 75.6-9.099-5.697-20.25-17.307-29.106-26.46 4.863 13.122 8.208 35.613 8.424 50.166-5.535-18.306-15.74-33.102-26.649-46.953 2.298 3.294 22.167 29.16 27.057 60.345-8.235-16.254-18.684-30.915-30.267-44.874 18.292 24.646 25.126 39.955 30.558 51.667.713 0 .079-.586 2.914.016-.214-.47-.643-1.436-.856-1.898-.165-2.7 2.835-33.453-7.914-63.126 13.044 14.607 19.335 22.491 39.183 29.376zm-17.77-65.229c-10.289-.459-13.175-.54-25.271-1.512-1.81-4.131-6.318-11.745-8.208-15.849 9.45 8.367 25.299 16.521 33.48 17.361zm-52.89 134.62c-6.722 24.677-18.47 52.055-32.372 71.01 5.049-37.26 9.393-74.953 4.803-100.657-1.536 15.471-5.127 30.24-9.828 45.01 1.107-19.198-.945-38.8-2.754-57.889-.92-9.504-2.241-18.927-4.24-28.269-1.89-8.883-6.317-16.929-10.367-24.975-4.806 15.768-12.555 29.295-21.168 43.281-8.289 13.473-18.576 24.786-32.184 32.778 8.775-14.472 16.818-34.425 22.218-45.792 4.968-10.476 14.553-27.864 13.23-44.09-15.014 23.49-38.772 44.765-60.966 61.586-21.222 16.092-66.474 39.61-69.174 40.635.54-.594 25.758-23.382 41.931-39.177 30.672-29.916 35.667-35.91 39.906-42.255-15.66 13.635-30.834 27.81-46.548 41.391-15.282 13.203-30.888 26.217-45.198 40.527 4.05-14.607 10.773-27.89 17.82-40.58 7.695-13.798 17.442-25.354 28.566-36.478-63.12 20.388-105.516 65.826-111.483 73.278-1.377 11.934-3.159 53.622-1.917 71.28-16.016-28.882-50.225-74.944-31.476-148.165-7.255 35.807 2.249 92.084 26.59 131.725-.784-17.361.863-35.181 3.887-52.272-5.022 5.157-10.152 10.044-15.849 14.418 2.943-17.604 12.636-34.101 21.33-49.437 8.262-14.5 17.523-28.836 30.051-40.068-9.909 12.042-18.846 26.703-26.973 40.878-8.91 15.525-18.846 34.37-22.086 45.63 18.28-17.82 27.81-38.583 72.82-66.528 26.19-16.254 41.714-19.116 58.481-24.138 2.89-2.97 5.751-5.913 8.56-8.964 5.372-5.832 10.097-12.042 14.768-18.441-18.06 28.134-23.652 29.133-37.203 47.115-20.547 27.243-22.518 35.316-30.051 52.002 16.47-17.388 25.407-22.923 42.795-39.42 13.689-13.014 44.766-36.342 45.603-37.746 3.375-5.697 6.642-14.094 11.205-21.951-4.59 9.612-7.101 19.899-12.906 28.89-5.832 9.018-14.283 16.983-21.519 24.867-11.934 12.987-29.403 29.025-47.007 43.767 13.473-8.262 27.513-15.282 40.581-24.273 12.69-8.721 25.029-18.117 36.612-28.296 22.413-19.656 40.797-42.633 54.918-68.823-4.401 9.261-9.234 18.333-14.742 26.973 1.704 10.044-.537 19.737-4.236 29.106-1.107 2.808-19.683 44.55-25.3 54.378 7.993-6.102 13.77-13.716 19.333-22.005 18.765-28.08 28.134-47.844 33.345-82.485-1.078 11.394-2.644 22.788-5.697 33.858 5.564 13.77 9.02 17.496 12.15 29.376 5.724 21.708 6.858 44.253 6.264 66.609 6.102-30.726 9.18-61.128 4.752-92.367 6.507 37.665 4.023 60.264 4.023 60.264 1.35 5.94 2.376 11.934 3.132 17.982 3.267 26.136.27 52.137-4.887 77.814 25.377-48.978 32.262-117.855 19.518-170.832 5.508 18.441 8.532 37.314 9.018 56.565.489 18.63-.135 37.827-3.318 56.214 6.183-16.173 11.912-42.409 11.912-47.401.756 10.692-4.247 28.258-8.672 44.566z" fill="#891b03"/><defs id="SvgjsDefs1001"><radialGradient id="SvgjsRadialGradient2754" cx="100" cy="113" r="40" gradientUnits="userSpaceOnUse" class="svga-on-canvas-facehighlight-gradient-single-0"><stop id="SvgjsStop2755" stop-opacity=".5" stop-color="#fff4f3" offset="0"/><stop id="SvgjsStop2756" stop-opacity="0" stop-color="#f3d4cf" offset=".9"/></radialGradient><radialGradient id="SvgjsRadialGradient2758" cx="100" cy="57" r="36" gradientUnits="userSpaceOnUse" class="svga-on-canvas-facehighlight-gradient-single-1"><stop id="SvgjsStop2759" stop-opacity=".5" stop-color="#fff4f3" offset="0"/><stop id="SvgjsStop2760" stop-opacity="0" stop-color="#f3d4cf" offset=".9"/></radialGradient><radialGradient id="SvgjsRadialGradient3625" cx="-565.337" cy="-492.691" r="84.644" gradientTransform="matrix(.0991 .00089 -.0011 .0991 130.377 136.353)" gradientUnits="userSpaceOnUse" class="svga-on-canvas-eyesiris-gradient-left-2"><stop id="SvgjsStop3626" stop-opacity=".8" stop-color="#fff" offset="0"/><stop id="SvgjsStop3627" stop-opacity="0" stop-color="#fff" offset="1"/></radialGradient><radialGradient id="SvgjsRadialGradient3648" cx="-584.778" cy="-487.329" r="84.644" gradientTransform="matrix(.0991 .00089 -.0011 .0991 182.31 135.839)" gradientUnits="userSpaceOnUse" class="svga-on-canvas-eyesiris-gradient-right-2"><stop id="SvgjsStop3649" stop-opacity=".8" stop-color="#fff" offset="0"/><stop id="SvgjsStop3650" stop-opacity="0" stop-color="#fff" offset="1"/></radialGradient><radialGradient id="SvgjsRadialGradient4891" cx="125.523" cy="88.627" r="13.218" gradientTransform="matrix(-1.0975 .096 .0956 1.0928 203.228 -20.87)" gradientUnits="userSpaceOnUse" class="svga-on-canvas-eyesback-gradient-left-0"><stop id="SvgjsStop4892" stop-opacity="1" stop-color="#fff" offset="0"/><stop id="SvgjsStop4893" stop-opacity="1" stop-color="#fdfefe" offset=".544"/><stop id="SvgjsStop4894" stop-opacity="1" stop-color="#f6f8f9" offset=".74"/><stop id="SvgjsStop4895" stop-opacity="1" stop-color="#eaeff2" offset=".879"/><stop id="SvgjsStop4896" stop-opacity="1" stop-color="#d9e3e8" offset=".992"/><stop id="SvgjsStop4897" stop-opacity="1" stop-color="#d8e2e7" offset="1"/></radialGradient><radialGradient id="SvgjsRadialGradient4899" cx="125.523" cy="88.627" r="13.218" gradientTransform="matrix(1.0975 .096 -.0956 1.0928 -3.229 -20.87)" gradientUnits="userSpaceOnUse" class="svga-on-canvas-eyesback-gradient-right-0"><stop id="SvgjsStop4900" stop-opacity="1" stop-color="#fff" offset="0"/><stop id="SvgjsStop4901" stop-opacity="1" stop-color="#fdfefe" offset=".544"/><stop id="SvgjsStop4902" stop-opacity="1" stop-color="#f6f8f9" offset=".74"/><stop id="SvgjsStop4903" stop-opacity="1" stop-color="#eaeff2" offset=".879"/><stop id="SvgjsStop4904" stop-opacity="1" stop-color="#d9e3e8" offset=".992"/><stop id="SvgjsStop4905" stop-opacity="1" stop-color="#d8e2e7" offset="1"/></radialGradient><radialGradient id="SvgjsRadialGradient4907" cx="125.523" cy="88.627" r="13.218" gradientTransform="matrix(-1.0975 .096 .0956 1.0928 203.228 -20.87)" gradientUnits="userSpaceOnUse" class="svga-on-canvas-eyesfront-gradient-left-0"><stop id="SvgjsStop4908" stop-opacity="1" stop-color="#fff" offset="0"/><stop id="SvgjsStop4909" stop-opacity="1" stop-color="#fdfefe" offset=".544"/><stop id="SvgjsStop4910" stop-opacity="1" stop-color="#f6f8f9" offset=".74"/><stop id="SvgjsStop4911" stop-opacity="1" stop-color="#eaeff2" offset=".879"/><stop id="SvgjsStop4912" stop-opacity="1" stop-color="#d9e3e8" offset=".992"/><stop id="SvgjsStop4913" stop-opacity="1" stop-color="#d8e2e7" offset="1"/></radialGradient><radialGradient id="SvgjsRadialGradient4917" cx="122.915" cy="85.507" fx="136.35" fy="84.425" r="17.038" gradientTransform="matrix(.9926 .1216 .1079 -.8805 -54.142 145.844)" gradientUnits="userSpaceOnUse" class="svga-on-canvas-eyesfront-gradient-left-3"><stop id="SvgjsStop4918" stop-opacity="1" stop-color="#e4b3ab" offset="0"/><stop id="SvgjsStop4919" stop-opacity=".3" stop-color="#e4b3ab" offset=".7"/><stop id="SvgjsStop4920" stop-opacity="0" stop-color="#f3d4cf" offset="1"/></radialGradient><radialGradient id="SvgjsRadialGradient4922" cx="78.447" cy="85.328" r="26.192" gradientTransform="matrix(.7158 -.1012 .1016 .7275 7.98 45.944)" gradientUnits="userSpaceOnUse" class="svga-on-canvas-eyesfront-gradient-left-4"><stop id="SvgjsStop4923" stop-opacity="0" stop-color="#000" offset=".9"/><stop id="SvgjsStop4924" stop-opacity=".3" stop-color="#000" offset="1"/></radialGradient><radialGradient id="SvgjsRadialGradient4928" cx="125.523" cy="88.627" r="13.218" gradientTransform="matrix(1.0975 .096 -.0956 1.0928 -3.229 -20.87)" gradientUnits="userSpaceOnUse" class="svga-on-canvas-eyesfront-gradient-right-0"><stop id="SvgjsStop4929" stop-opacity="1" stop-color="#fff" offset="0"/><stop id="SvgjsStop4930" stop-opacity="1" stop-color="#fdfefe" offset=".544"/><stop id="SvgjsStop4931" stop-opacity="1" stop-color="#f6f8f9" offset=".74"/><stop id="SvgjsStop4932" stop-opacity="1" stop-color="#eaeff2" offset=".879"/><stop id="SvgjsStop4933" stop-opacity="1" stop-color="#d9e3e8" offset=".992"/><stop id="SvgjsStop4934" stop-opacity="1" stop-color="#d8e2e7" offset="1"/></radialGradient><radialGradient id="SvgjsRadialGradient4938" cx="122.915" cy="85.507" fx="136.35" fy="84.425" r="17.038" gradientTransform="matrix(-.9926 .1216 -.1079 -.8805 254.142 145.844)" gradientUnits="userSpaceOnUse" class="svga-on-canvas-eyesfront-gradient-right-3"><stop id="SvgjsStop4939" stop-opacity="1" stop-color="#e4b3ab" offset="0"/><stop id="SvgjsStop4940" stop-opacity=".3" stop-color="#e4b3ab" offset=".7"/><stop id="SvgjsStop4941" stop-opacity="0" stop-color="#f3d4cf" offset="1"/></radialGradient><radialGradient id="SvgjsRadialGradient4943" cx="78.447" cy="85.328" r="26.192" gradientTransform="matrix(-.7158 -.1012 -.1016 .7275 192.02 45.944)" gradientUnits="userSpaceOnUse" class="svga-on-canvas-eyesfront-gradient-right-4"><stop id="SvgjsStop4944" stop-opacity="0" stop-color="#000" offset=".9"/><stop id="SvgjsStop4945" stop-opacity=".3" stop-color="#000" offset="1"/></radialGradient><linearGradient id="SvgjsLinearGradient3521" x1="100" y1="142" x2="100" y2="139" gradientUnits="userSpaceOnUse" class="svga-on-canvas-mouth-gradient-single-0"><stop id="SvgjsStop3522" stop-opacity="1" stop-color="#ebc3bd" offset=".1"/><stop id="SvgjsStop3523" stop-opacity="1" stop-color="#e4b3ab" offset="1"/></linearGradient><linearGradient id="SvgjsLinearGradient3631" x1="122.283" y1="93.047" x2="123.61" y2="91.466" gradientTransform="translate(-52)" gradientUnits="userSpaceOnUse" class="svga-on-canvas-eyesiris-gradient-left-5"><stop id="SvgjsStop3632" stop-opacity="1" stop-color="#fff" offset="0"/><stop id="SvgjsStop3633" stop-opacity="0" stop-color="#fff" offset="1"/></linearGradient><linearGradient id="SvgjsLinearGradient3639" x1="130" y1="81" x2="126" y2="85" gradientTransform="translate(-50)" gradientUnits="userSpaceOnUse" class="svga-on-canvas-eyesiris-gradient-left-7"><stop id="SvgjsStop3640" stop-opacity="1" stop-color="#fff" offset="0"/><stop id="SvgjsStop3641" stop-opacity="0" stop-color="#fff" offset="1"/></linearGradient><linearGradient id="SvgjsLinearGradient3654" x1="120.284" y1="93.047" x2="121.611" y2="91.467" gradientUnits="userSpaceOnUse" class="svga-on-canvas-eyesiris-gradient-right-5"><stop id="SvgjsStop3655" stop-opacity="1" stop-color="#fff" offset="0"/><stop id="SvgjsStop3656" stop-opacity="0" stop-color="#fff" offset="1"/></linearGradient><linearGradient id="SvgjsLinearGradient3662" x1="130" y1="81" x2="126" y2="85" gradientUnits="userSpaceOnUse" class="svga-on-canvas-eyesiris-gradient-right-7"><stop id="SvgjsStop3663" stop-opacity="1" stop-color="#fff" offset="0"/><stop id="SvgjsStop3664" stop-opacity="0" stop-color="#fff" offset="1"/></linearGradient><linearGradient id="SvgjsLinearGradient3703" x1="130" y1="81" x2="126" y2="85" gradientTransform="translate(-50)" gradientUnits="userSpaceOnUse" class="svga-on-canvas-eyesiris-gradient-left-1"><stop id="SvgjsStop3704" stop-opacity="1" stop-color="#fff" offset="0"/><stop id="SvgjsStop3705" stop-opacity="0" stop-color="#fff" offset="1"/></linearGradient><linearGradient id="SvgjsLinearGradient3708" x1="130" y1="81" x2="126" y2="85" gradientUnits="userSpaceOnUse" class="svga-on-canvas-eyesiris-gradient-right-1"><stop id="SvgjsStop3709" stop-opacity="1" stop-color="#fff" offset="0"/><stop id="SvgjsStop3710" stop-opacity="0" stop-color="#fff" offset="1"/></linearGradient><linearGradient id="SvgjsLinearGradient3718" x1="130" y1="81" x2="126" y2="85" gradientTransform="translate(-50)" gradientUnits="userSpaceOnUse" class="svga-on-canvas-eyesiris-gradient-left-6"><stop id="SvgjsStop3719" stop-opacity="1" stop-color="#fff" offset="0"/><stop id="SvgjsStop3720" stop-opacity="0" stop-color="#fff" offset="1"/></linearGradient><linearGradient id="SvgjsLinearGradient3728" x1="130" y1="81" x2="126" y2="85" gradientUnits="userSpaceOnUse" class="svga-on-canvas-eyesiris-gradient-right-6"><stop id="SvgjsStop3729" stop-opacity="1" stop-color="#fff" offset="0"/><stop id="SvgjsStop3730" stop-opacity="0" stop-color="#fff" offset="1"/></linearGradient><linearGradient id="SvgjsLinearGradient4019" x1="99.98" y1="171.27" x2="99.98" y2="136.351" gradientUnits="userSpaceOnUse" class="svga-on-canvas-chinshadow-gradient-single-0"><stop id="SvgjsStop4020" stop-opacity=".8" stop-color="#e4b3ab" offset="0"/><stop id="SvgjsStop4021" stop-opacity="1" stop-color="#c5796d" offset=".7"/></linearGradient></defs></svg>